<?xml version="1.0" encoding="utf-8" standalone="no"?>
<!DOCTYPE svg PUBLIC "-//W3C//DTD SVG 1.1//EN"
  "http://www.w3.org/Graphics/SVG/1.1/DTD/svg11.dtd">
<svg xmlns:xlink="http://www.w3.org/1999/xlink" width="453.730687pt" height="336.641pt" viewBox="0 0 453.730687 336.641" xmlns="http://www.w3.org/2000/svg" version="1.1">
 <metadata>
  <rdf:RDF xmlns:dc="http://purl.org/dc/elements/1.1/" xmlns:cc="http://creativecommons.org/ns#" xmlns:rdf="http://www.w3.org/1999/02/22-rdf-syntax-ns#">
   <cc:Work>
    <dc:type rdf:resource="http://purl.org/dc/dcmitype/StillImage"/>
    <dc:date>2026-02-18T10:12:54.988505</dc:date>
    <dc:format>image/svg+xml</dc:format>
    <dc:creator>
     <cc:Agent>
      <dc:title>Matplotlib v3.10.6, https://matplotlib.org/</dc:title>
     </cc:Agent>
    </dc:creator>
   </cc:Work>
  </rdf:RDF>
 </metadata>
 <defs>
  <style type="text/css">*{stroke-linejoin: round; stroke-linecap: butt}</style>
 </defs>
 <g id="figure_1">
  <g id="patch_1">
   <path d="M 0 336.641 
L 453.730687 336.641 
L 453.730687 0 
L 0 0 
z
" style="fill: #ffffff"/>
  </g>
  <g id="axes_1">
   <g id="patch_2">
    <path d="M 86.316688 284.056 
L 446.530687 284.056 
L 446.530687 7.2 
L 86.316688 7.2 
z
" style="fill: #ffffff"/>
   </g>
   <g id="matplotlib.axis_1">
    <g id="xtick_1">
     <g id="line2d_1">
      <defs>
       <path id="m0a63376e32" d="M 0 0 
L 0 3.5 
" style="stroke: #000000; stroke-width: 0.8"/>
      </defs>
      <g>
       <use xlink:href="#m0a63376e32" x="102.690051" y="284.056" style="stroke: #000000; stroke-width: 0.8"/>
      </g>
     </g>
     <g id="text_1">
      <!-- 0 -->
      <g transform="translate(97.600051 303.2135) scale(0.16 -0.16)">
       <defs>
        <path id="DejaVuSans-30" d="M 2034 4250 
Q 1547 4250 1301 3770 
Q 1056 3291 1056 2328 
Q 1056 1369 1301 889 
Q 1547 409 2034 409 
Q 2525 409 2770 889 
Q 3016 1369 3016 2328 
Q 3016 3291 2770 3770 
Q 2525 4250 2034 4250 
z
M 2034 4750 
Q 2819 4750 3233 4129 
Q 3647 3509 3647 2328 
Q 3647 1150 3233 529 
Q 2819 -91 2034 -91 
Q 1250 -91 836 529 
Q 422 1150 422 2328 
Q 422 3509 836 4129 
Q 1250 4750 2034 4750 
z
" transform="scale(0.015625)"/>
       </defs>
       <use xlink:href="#DejaVuSans-30"/>
      </g>
     </g>
    </g>
    <g id="xtick_2">
     <g id="line2d_2">
      <g>
       <use xlink:href="#m0a63376e32" x="168.183506" y="284.056" style="stroke: #000000; stroke-width: 0.8"/>
      </g>
     </g>
     <g id="text_2">
      <!-- 2 -->
      <g transform="translate(163.093506 303.2135) scale(0.16 -0.16)">
       <defs>
        <path id="DejaVuSans-32" d="M 1228 531 
L 3431 531 
L 3431 0 
L 469 0 
L 469 531 
Q 828 903 1448 1529 
Q 2069 2156 2228 2338 
Q 2531 2678 2651 2914 
Q 2772 3150 2772 3378 
Q 2772 3750 2511 3984 
Q 2250 4219 1831 4219 
Q 1534 4219 1204 4116 
Q 875 4013 500 3803 
L 500 4441 
Q 881 4594 1212 4672 
Q 1544 4750 1819 4750 
Q 2544 4750 2975 4387 
Q 3406 4025 3406 3419 
Q 3406 3131 3298 2873 
Q 3191 2616 2906 2266 
Q 2828 2175 2409 1742 
Q 1991 1309 1228 531 
z
" transform="scale(0.015625)"/>
       </defs>
       <use xlink:href="#DejaVuSans-32"/>
      </g>
     </g>
    </g>
    <g id="xtick_3">
     <g id="line2d_3">
      <g>
       <use xlink:href="#m0a63376e32" x="233.67696" y="284.056" style="stroke: #000000; stroke-width: 0.8"/>
      </g>
     </g>
     <g id="text_3">
      <!-- 4 -->
      <g transform="translate(228.58696 303.2135) scale(0.16 -0.16)">
       <defs>
        <path id="DejaVuSans-34" d="M 2419 4116 
L 825 1625 
L 2419 1625 
L 2419 4116 
z
M 2253 4666 
L 3047 4666 
L 3047 1625 
L 3713 1625 
L 3713 1100 
L 3047 1100 
L 3047 0 
L 2419 0 
L 2419 1100 
L 313 1100 
L 313 1709 
L 2253 4666 
z
" transform="scale(0.015625)"/>
       </defs>
       <use xlink:href="#DejaVuSans-34"/>
      </g>
     </g>
    </g>
    <g id="xtick_4">
     <g id="line2d_4">
      <g>
       <use xlink:href="#m0a63376e32" x="299.170415" y="284.056" style="stroke: #000000; stroke-width: 0.8"/>
      </g>
     </g>
     <g id="text_4">
      <!-- 6 -->
      <g transform="translate(294.080415 303.2135) scale(0.16 -0.16)">
       <defs>
        <path id="DejaVuSans-36" d="M 2113 2584 
Q 1688 2584 1439 2293 
Q 1191 2003 1191 1497 
Q 1191 994 1439 701 
Q 1688 409 2113 409 
Q 2538 409 2786 701 
Q 3034 994 3034 1497 
Q 3034 2003 2786 2293 
Q 2538 2584 2113 2584 
z
M 3366 4563 
L 3366 3988 
Q 3128 4100 2886 4159 
Q 2644 4219 2406 4219 
Q 1781 4219 1451 3797 
Q 1122 3375 1075 2522 
Q 1259 2794 1537 2939 
Q 1816 3084 2150 3084 
Q 2853 3084 3261 2657 
Q 3669 2231 3669 1497 
Q 3669 778 3244 343 
Q 2819 -91 2113 -91 
Q 1303 -91 875 529 
Q 447 1150 447 2328 
Q 447 3434 972 4092 
Q 1497 4750 2381 4750 
Q 2619 4750 2861 4703 
Q 3103 4656 3366 4563 
z
" transform="scale(0.015625)"/>
       </defs>
       <use xlink:href="#DejaVuSans-36"/>
      </g>
     </g>
    </g>
    <g id="xtick_5">
     <g id="line2d_5">
      <g>
       <use xlink:href="#m0a63376e32" x="364.663869" y="284.056" style="stroke: #000000; stroke-width: 0.8"/>
      </g>
     </g>
     <g id="text_5">
      <!-- 8 -->
      <g transform="translate(359.573869 303.2135) scale(0.16 -0.16)">
       <defs>
        <path id="DejaVuSans-38" d="M 2034 2216 
Q 1584 2216 1326 1975 
Q 1069 1734 1069 1313 
Q 1069 891 1326 650 
Q 1584 409 2034 409 
Q 2484 409 2743 651 
Q 3003 894 3003 1313 
Q 3003 1734 2745 1975 
Q 2488 2216 2034 2216 
z
M 1403 2484 
Q 997 2584 770 2862 
Q 544 3141 544 3541 
Q 544 4100 942 4425 
Q 1341 4750 2034 4750 
Q 2731 4750 3128 4425 
Q 3525 4100 3525 3541 
Q 3525 3141 3298 2862 
Q 3072 2584 2669 2484 
Q 3125 2378 3379 2068 
Q 3634 1759 3634 1313 
Q 3634 634 3220 271 
Q 2806 -91 2034 -91 
Q 1263 -91 848 271 
Q 434 634 434 1313 
Q 434 1759 690 2068 
Q 947 2378 1403 2484 
z
M 1172 3481 
Q 1172 3119 1398 2916 
Q 1625 2713 2034 2713 
Q 2441 2713 2670 2916 
Q 2900 3119 2900 3481 
Q 2900 3844 2670 4047 
Q 2441 4250 2034 4250 
Q 1625 4250 1398 4047 
Q 1172 3844 1172 3481 
z
" transform="scale(0.015625)"/>
       </defs>
       <use xlink:href="#DejaVuSans-38"/>
      </g>
     </g>
    </g>
    <g id="xtick_6">
     <g id="line2d_6">
      <g>
       <use xlink:href="#m0a63376e32" x="430.157324" y="284.056" style="stroke: #000000; stroke-width: 0.8"/>
      </g>
     </g>
     <g id="text_6">
      <!-- 10 -->
      <g transform="translate(419.977324 303.2135) scale(0.16 -0.16)">
       <defs>
        <path id="DejaVuSans-31" d="M 794 531 
L 1825 531 
L 1825 4091 
L 703 3866 
L 703 4441 
L 1819 4666 
L 2450 4666 
L 2450 531 
L 3481 531 
L 3481 0 
L 794 0 
L 794 531 
z
" transform="scale(0.015625)"/>
       </defs>
       <use xlink:href="#DejaVuSans-31"/>
       <use xlink:href="#DejaVuSans-30" transform="translate(63.623047 0)"/>
      </g>
     </g>
    </g>
    <g id="text_7">
     <!-- Time ($10^{-19} s$) -->
     <g transform="translate(204.413688 325.697562) scale(0.18 -0.18)">
      <defs>
       <path id="DejaVuSans-54" d="M -19 4666 
L 3928 4666 
L 3928 4134 
L 2272 4134 
L 2272 0 
L 1638 0 
L 1638 4134 
L -19 4134 
L -19 4666 
z
" transform="scale(0.015625)"/>
       <path id="DejaVuSans-69" d="M 603 3500 
L 1178 3500 
L 1178 0 
L 603 0 
L 603 3500 
z
M 603 4863 
L 1178 4863 
L 1178 4134 
L 603 4134 
L 603 4863 
z
" transform="scale(0.015625)"/>
       <path id="DejaVuSans-6d" d="M 3328 2828 
Q 3544 3216 3844 3400 
Q 4144 3584 4550 3584 
Q 5097 3584 5394 3201 
Q 5691 2819 5691 2113 
L 5691 0 
L 5113 0 
L 5113 2094 
Q 5113 2597 4934 2840 
Q 4756 3084 4391 3084 
Q 3944 3084 3684 2787 
Q 3425 2491 3425 1978 
L 3425 0 
L 2847 0 
L 2847 2094 
Q 2847 2600 2669 2842 
Q 2491 3084 2119 3084 
Q 1678 3084 1418 2786 
Q 1159 2488 1159 1978 
L 1159 0 
L 581 0 
L 581 3500 
L 1159 3500 
L 1159 2956 
Q 1356 3278 1631 3431 
Q 1906 3584 2284 3584 
Q 2666 3584 2933 3390 
Q 3200 3197 3328 2828 
z
" transform="scale(0.015625)"/>
       <path id="DejaVuSans-65" d="M 3597 1894 
L 3597 1613 
L 953 1613 
Q 991 1019 1311 708 
Q 1631 397 2203 397 
Q 2534 397 2845 478 
Q 3156 559 3463 722 
L 3463 178 
Q 3153 47 2828 -22 
Q 2503 -91 2169 -91 
Q 1331 -91 842 396 
Q 353 884 353 1716 
Q 353 2575 817 3079 
Q 1281 3584 2069 3584 
Q 2775 3584 3186 3129 
Q 3597 2675 3597 1894 
z
M 3022 2063 
Q 3016 2534 2758 2815 
Q 2500 3097 2075 3097 
Q 1594 3097 1305 2825 
Q 1016 2553 972 2059 
L 3022 2063 
z
" transform="scale(0.015625)"/>
       <path id="DejaVuSans-20" transform="scale(0.015625)"/>
       <path id="DejaVuSans-28" d="M 1984 4856 
Q 1566 4138 1362 3434 
Q 1159 2731 1159 2009 
Q 1159 1288 1364 580 
Q 1569 -128 1984 -844 
L 1484 -844 
Q 1016 -109 783 600 
Q 550 1309 550 2009 
Q 550 2706 781 3412 
Q 1013 4119 1484 4856 
L 1984 4856 
z
" transform="scale(0.015625)"/>
       <path id="DejaVuSans-2212" d="M 678 2272 
L 4684 2272 
L 4684 1741 
L 678 1741 
L 678 2272 
z
" transform="scale(0.015625)"/>
       <path id="DejaVuSans-39" d="M 703 97 
L 703 672 
Q 941 559 1184 500 
Q 1428 441 1663 441 
Q 2288 441 2617 861 
Q 2947 1281 2994 2138 
Q 2813 1869 2534 1725 
Q 2256 1581 1919 1581 
Q 1219 1581 811 2004 
Q 403 2428 403 3163 
Q 403 3881 828 4315 
Q 1253 4750 1959 4750 
Q 2769 4750 3195 4129 
Q 3622 3509 3622 2328 
Q 3622 1225 3098 567 
Q 2575 -91 1691 -91 
Q 1453 -91 1209 -44 
Q 966 3 703 97 
z
M 1959 2075 
Q 2384 2075 2632 2365 
Q 2881 2656 2881 3163 
Q 2881 3666 2632 3958 
Q 2384 4250 1959 4250 
Q 1534 4250 1286 3958 
Q 1038 3666 1038 3163 
Q 1038 2656 1286 2365 
Q 1534 2075 1959 2075 
z
" transform="scale(0.015625)"/>
       <path id="DejaVuSans-Oblique-73" d="M 3200 3397 
L 3091 2853 
Q 2863 2978 2609 3040 
Q 2356 3103 2088 3103 
Q 1634 3103 1373 2948 
Q 1113 2794 1113 2528 
Q 1113 2219 1719 2053 
Q 1766 2041 1788 2034 
L 1972 1978 
Q 2547 1819 2739 1644 
Q 2931 1469 2931 1166 
Q 2931 609 2489 259 
Q 2047 -91 1331 -91 
Q 1053 -91 747 -37 
Q 441 16 72 128 
L 184 722 
Q 500 559 806 475 
Q 1113 391 1394 391 
Q 1816 391 2080 572 
Q 2344 753 2344 1031 
Q 2344 1331 1650 1516 
L 1591 1531 
L 1394 1581 
Q 956 1697 753 1886 
Q 550 2075 550 2369 
Q 550 2928 970 3256 
Q 1391 3584 2113 3584 
Q 2397 3584 2667 3537 
Q 2938 3491 3200 3397 
z
" transform="scale(0.015625)"/>
       <path id="DejaVuSans-29" d="M 513 4856 
L 1013 4856 
Q 1481 4119 1714 3412 
Q 1947 2706 1947 2009 
Q 1947 1309 1714 600 
Q 1481 -109 1013 -844 
L 513 -844 
Q 928 -128 1133 580 
Q 1338 1288 1338 2009 
Q 1338 2731 1133 3434 
Q 928 4138 513 4856 
z
" transform="scale(0.015625)"/>
      </defs>
      <use xlink:href="#DejaVuSans-54" transform="translate(0 0.765625)"/>
      <use xlink:href="#DejaVuSans-69" transform="translate(61.083984 0.765625)"/>
      <use xlink:href="#DejaVuSans-6d" transform="translate(88.867188 0.765625)"/>
      <use xlink:href="#DejaVuSans-65" transform="translate(186.279297 0.765625)"/>
      <use xlink:href="#DejaVuSans-20" transform="translate(247.802734 0.765625)"/>
      <use xlink:href="#DejaVuSans-28" transform="translate(279.589844 0.765625)"/>
      <use xlink:href="#DejaVuSans-31" transform="translate(318.603516 0.765625)"/>
      <use xlink:href="#DejaVuSans-30" transform="translate(382.226562 0.765625)"/>
      <use xlink:href="#DejaVuSans-2212" transform="translate(446.806641 39.046875) scale(0.7)"/>
      <use xlink:href="#DejaVuSans-31" transform="translate(505.458984 39.046875) scale(0.7)"/>
      <use xlink:href="#DejaVuSans-39" transform="translate(549.995117 39.046875) scale(0.7)"/>
      <use xlink:href="#DejaVuSans-Oblique-73" transform="translate(597.265625 0.765625)"/>
      <use xlink:href="#DejaVuSans-29" transform="translate(649.365234 0.765625)"/>
     </g>
    </g>
   </g>
   <g id="matplotlib.axis_2">
    <g id="ytick_1">
     <g id="line2d_7">
      <defs>
       <path id="m31c4154ee4" d="M 0 0 
L -3.5 0 
" style="stroke: #000000; stroke-width: 0.8"/>
      </defs>
      <g>
       <use xlink:href="#m31c4154ee4" x="86.316688" y="271.471636" style="stroke: #000000; stroke-width: 0.8"/>
      </g>
     </g>
     <g id="text_8">
      <!-- 0 -->
      <g transform="translate(69.136687 277.550386) scale(0.16 -0.16)">
       <use xlink:href="#DejaVuSans-30"/>
      </g>
     </g>
    </g>
    <g id="ytick_2">
     <g id="line2d_8">
      <g>
       <use xlink:href="#m31c4154ee4" x="86.316688" y="221.134182" style="stroke: #000000; stroke-width: 0.8"/>
      </g>
     </g>
     <g id="text_9">
      <!-- 20 -->
      <g transform="translate(58.956688 227.212932) scale(0.16 -0.16)">
       <use xlink:href="#DejaVuSans-32"/>
       <use xlink:href="#DejaVuSans-30" transform="translate(63.623047 0)"/>
      </g>
     </g>
    </g>
    <g id="ytick_3">
     <g id="line2d_9">
      <g>
       <use xlink:href="#m31c4154ee4" x="86.316688" y="170.796727" style="stroke: #000000; stroke-width: 0.8"/>
      </g>
     </g>
     <g id="text_10">
      <!-- 40 -->
      <g transform="translate(58.956688 176.875477) scale(0.16 -0.16)">
       <use xlink:href="#DejaVuSans-34"/>
       <use xlink:href="#DejaVuSans-30" transform="translate(63.623047 0)"/>
      </g>
     </g>
    </g>
    <g id="ytick_4">
     <g id="line2d_10">
      <g>
       <use xlink:href="#m31c4154ee4" x="86.316688" y="120.459273" style="stroke: #000000; stroke-width: 0.8"/>
      </g>
     </g>
     <g id="text_11">
      <!-- 60 -->
      <g transform="translate(58.956688 126.538023) scale(0.16 -0.16)">
       <use xlink:href="#DejaVuSans-36"/>
       <use xlink:href="#DejaVuSans-30" transform="translate(63.623047 0)"/>
      </g>
     </g>
    </g>
    <g id="ytick_5">
     <g id="line2d_11">
      <g>
       <use xlink:href="#m31c4154ee4" x="86.316688" y="70.121818" style="stroke: #000000; stroke-width: 0.8"/>
      </g>
     </g>
     <g id="text_12">
      <!-- 80 -->
      <g transform="translate(58.956688 76.200568) scale(0.16 -0.16)">
       <use xlink:href="#DejaVuSans-38"/>
       <use xlink:href="#DejaVuSans-30" transform="translate(63.623047 0)"/>
      </g>
     </g>
    </g>
    <g id="ytick_6">
     <g id="line2d_12">
      <g>
       <use xlink:href="#m31c4154ee4" x="86.316688" y="19.784364" style="stroke: #000000; stroke-width: 0.8"/>
      </g>
     </g>
     <g id="text_13">
      <!-- 100 -->
      <g transform="translate(48.776688 25.863114) scale(0.16 -0.16)">
       <use xlink:href="#DejaVuSans-31"/>
       <use xlink:href="#DejaVuSans-30" transform="translate(63.623047 0)"/>
       <use xlink:href="#DejaVuSans-30" transform="translate(127.246094 0)"/>
      </g>
     </g>
    </g>
    <g id="text_14">
     <!-- Percentage of particles  -->
     <g transform="translate(20.877188 252.137375) rotate(-90) scale(0.18 -0.18)">
      <defs>
       <path id="DejaVuSans-50" d="M 1259 4147 
L 1259 2394 
L 2053 2394 
Q 2494 2394 2734 2622 
Q 2975 2850 2975 3272 
Q 2975 3691 2734 3919 
Q 2494 4147 2053 4147 
L 1259 4147 
z
M 628 4666 
L 2053 4666 
Q 2838 4666 3239 4311 
Q 3641 3956 3641 3272 
Q 3641 2581 3239 2228 
Q 2838 1875 2053 1875 
L 1259 1875 
L 1259 0 
L 628 0 
L 628 4666 
z
" transform="scale(0.015625)"/>
       <path id="DejaVuSans-72" d="M 2631 2963 
Q 2534 3019 2420 3045 
Q 2306 3072 2169 3072 
Q 1681 3072 1420 2755 
Q 1159 2438 1159 1844 
L 1159 0 
L 581 0 
L 581 3500 
L 1159 3500 
L 1159 2956 
Q 1341 3275 1631 3429 
Q 1922 3584 2338 3584 
Q 2397 3584 2469 3576 
Q 2541 3569 2628 3553 
L 2631 2963 
z
" transform="scale(0.015625)"/>
       <path id="DejaVuSans-63" d="M 3122 3366 
L 3122 2828 
Q 2878 2963 2633 3030 
Q 2388 3097 2138 3097 
Q 1578 3097 1268 2742 
Q 959 2388 959 1747 
Q 959 1106 1268 751 
Q 1578 397 2138 397 
Q 2388 397 2633 464 
Q 2878 531 3122 666 
L 3122 134 
Q 2881 22 2623 -34 
Q 2366 -91 2075 -91 
Q 1284 -91 818 406 
Q 353 903 353 1747 
Q 353 2603 823 3093 
Q 1294 3584 2113 3584 
Q 2378 3584 2631 3529 
Q 2884 3475 3122 3366 
z
" transform="scale(0.015625)"/>
       <path id="DejaVuSans-6e" d="M 3513 2113 
L 3513 0 
L 2938 0 
L 2938 2094 
Q 2938 2591 2744 2837 
Q 2550 3084 2163 3084 
Q 1697 3084 1428 2787 
Q 1159 2491 1159 1978 
L 1159 0 
L 581 0 
L 581 3500 
L 1159 3500 
L 1159 2956 
Q 1366 3272 1645 3428 
Q 1925 3584 2291 3584 
Q 2894 3584 3203 3211 
Q 3513 2838 3513 2113 
z
" transform="scale(0.015625)"/>
       <path id="DejaVuSans-74" d="M 1172 4494 
L 1172 3500 
L 2356 3500 
L 2356 3053 
L 1172 3053 
L 1172 1153 
Q 1172 725 1289 603 
Q 1406 481 1766 481 
L 2356 481 
L 2356 0 
L 1766 0 
Q 1100 0 847 248 
Q 594 497 594 1153 
L 594 3053 
L 172 3053 
L 172 3500 
L 594 3500 
L 594 4494 
L 1172 4494 
z
" transform="scale(0.015625)"/>
       <path id="DejaVuSans-61" d="M 2194 1759 
Q 1497 1759 1228 1600 
Q 959 1441 959 1056 
Q 959 750 1161 570 
Q 1363 391 1709 391 
Q 2188 391 2477 730 
Q 2766 1069 2766 1631 
L 2766 1759 
L 2194 1759 
z
M 3341 1997 
L 3341 0 
L 2766 0 
L 2766 531 
Q 2569 213 2275 61 
Q 1981 -91 1556 -91 
Q 1019 -91 701 211 
Q 384 513 384 1019 
Q 384 1609 779 1909 
Q 1175 2209 1959 2209 
L 2766 2209 
L 2766 2266 
Q 2766 2663 2505 2880 
Q 2244 3097 1772 3097 
Q 1472 3097 1187 3025 
Q 903 2953 641 2809 
L 641 3341 
Q 956 3463 1253 3523 
Q 1550 3584 1831 3584 
Q 2591 3584 2966 3190 
Q 3341 2797 3341 1997 
z
" transform="scale(0.015625)"/>
       <path id="DejaVuSans-67" d="M 2906 1791 
Q 2906 2416 2648 2759 
Q 2391 3103 1925 3103 
Q 1463 3103 1205 2759 
Q 947 2416 947 1791 
Q 947 1169 1205 825 
Q 1463 481 1925 481 
Q 2391 481 2648 825 
Q 2906 1169 2906 1791 
z
M 3481 434 
Q 3481 -459 3084 -895 
Q 2688 -1331 1869 -1331 
Q 1566 -1331 1297 -1286 
Q 1028 -1241 775 -1147 
L 775 -588 
Q 1028 -725 1275 -790 
Q 1522 -856 1778 -856 
Q 2344 -856 2625 -561 
Q 2906 -266 2906 331 
L 2906 616 
Q 2728 306 2450 153 
Q 2172 0 1784 0 
Q 1141 0 747 490 
Q 353 981 353 1791 
Q 353 2603 747 3093 
Q 1141 3584 1784 3584 
Q 2172 3584 2450 3431 
Q 2728 3278 2906 2969 
L 2906 3500 
L 3481 3500 
L 3481 434 
z
" transform="scale(0.015625)"/>
       <path id="DejaVuSans-6f" d="M 1959 3097 
Q 1497 3097 1228 2736 
Q 959 2375 959 1747 
Q 959 1119 1226 758 
Q 1494 397 1959 397 
Q 2419 397 2687 759 
Q 2956 1122 2956 1747 
Q 2956 2369 2687 2733 
Q 2419 3097 1959 3097 
z
M 1959 3584 
Q 2709 3584 3137 3096 
Q 3566 2609 3566 1747 
Q 3566 888 3137 398 
Q 2709 -91 1959 -91 
Q 1206 -91 779 398 
Q 353 888 353 1747 
Q 353 2609 779 3096 
Q 1206 3584 1959 3584 
z
" transform="scale(0.015625)"/>
       <path id="DejaVuSans-66" d="M 2375 4863 
L 2375 4384 
L 1825 4384 
Q 1516 4384 1395 4259 
Q 1275 4134 1275 3809 
L 1275 3500 
L 2222 3500 
L 2222 3053 
L 1275 3053 
L 1275 0 
L 697 0 
L 697 3053 
L 147 3053 
L 147 3500 
L 697 3500 
L 697 3744 
Q 697 4328 969 4595 
Q 1241 4863 1831 4863 
L 2375 4863 
z
" transform="scale(0.015625)"/>
       <path id="DejaVuSans-70" d="M 1159 525 
L 1159 -1331 
L 581 -1331 
L 581 3500 
L 1159 3500 
L 1159 2969 
Q 1341 3281 1617 3432 
Q 1894 3584 2278 3584 
Q 2916 3584 3314 3078 
Q 3713 2572 3713 1747 
Q 3713 922 3314 415 
Q 2916 -91 2278 -91 
Q 1894 -91 1617 61 
Q 1341 213 1159 525 
z
M 3116 1747 
Q 3116 2381 2855 2742 
Q 2594 3103 2138 3103 
Q 1681 3103 1420 2742 
Q 1159 2381 1159 1747 
Q 1159 1113 1420 752 
Q 1681 391 2138 391 
Q 2594 391 2855 752 
Q 3116 1113 3116 1747 
z
" transform="scale(0.015625)"/>
       <path id="DejaVuSans-6c" d="M 603 4863 
L 1178 4863 
L 1178 0 
L 603 0 
L 603 4863 
z
" transform="scale(0.015625)"/>
       <path id="DejaVuSans-73" d="M 2834 3397 
L 2834 2853 
Q 2591 2978 2328 3040 
Q 2066 3103 1784 3103 
Q 1356 3103 1142 2972 
Q 928 2841 928 2578 
Q 928 2378 1081 2264 
Q 1234 2150 1697 2047 
L 1894 2003 
Q 2506 1872 2764 1633 
Q 3022 1394 3022 966 
Q 3022 478 2636 193 
Q 2250 -91 1575 -91 
Q 1294 -91 989 -36 
Q 684 19 347 128 
L 347 722 
Q 666 556 975 473 
Q 1284 391 1588 391 
Q 1994 391 2212 530 
Q 2431 669 2431 922 
Q 2431 1156 2273 1281 
Q 2116 1406 1581 1522 
L 1381 1569 
Q 847 1681 609 1914 
Q 372 2147 372 2553 
Q 372 3047 722 3315 
Q 1072 3584 1716 3584 
Q 2034 3584 2315 3537 
Q 2597 3491 2834 3397 
z
" transform="scale(0.015625)"/>
      </defs>
      <use xlink:href="#DejaVuSans-50"/>
      <use xlink:href="#DejaVuSans-65" transform="translate(56.677734 0)"/>
      <use xlink:href="#DejaVuSans-72" transform="translate(118.201172 0)"/>
      <use xlink:href="#DejaVuSans-63" transform="translate(157.064453 0)"/>
      <use xlink:href="#DejaVuSans-65" transform="translate(212.044922 0)"/>
      <use xlink:href="#DejaVuSans-6e" transform="translate(273.568359 0)"/>
      <use xlink:href="#DejaVuSans-74" transform="translate(336.947266 0)"/>
      <use xlink:href="#DejaVuSans-61" transform="translate(376.15625 0)"/>
      <use xlink:href="#DejaVuSans-67" transform="translate(437.435547 0)"/>
      <use xlink:href="#DejaVuSans-65" transform="translate(500.912109 0)"/>
      <use xlink:href="#DejaVuSans-20" transform="translate(562.435547 0)"/>
      <use xlink:href="#DejaVuSans-6f" transform="translate(594.222656 0)"/>
      <use xlink:href="#DejaVuSans-66" transform="translate(655.404297 0)"/>
      <use xlink:href="#DejaVuSans-20" transform="translate(690.609375 0)"/>
      <use xlink:href="#DejaVuSans-70" transform="translate(722.396484 0)"/>
      <use xlink:href="#DejaVuSans-61" transform="translate(785.873047 0)"/>
      <use xlink:href="#DejaVuSans-72" transform="translate(847.152344 0)"/>
      <use xlink:href="#DejaVuSans-74" transform="translate(888.265625 0)"/>
      <use xlink:href="#DejaVuSans-69" transform="translate(927.474609 0)"/>
      <use xlink:href="#DejaVuSans-63" transform="translate(955.257812 0)"/>
      <use xlink:href="#DejaVuSans-6c" transform="translate(1010.238281 0)"/>
      <use xlink:href="#DejaVuSans-65" transform="translate(1038.021484 0)"/>
      <use xlink:href="#DejaVuSans-73" transform="translate(1099.544922 0)"/>
      <use xlink:href="#DejaVuSans-20" transform="translate(1151.644531 0)"/>
     </g>
     <!--  in given state -->
     <g transform="translate(41.03325 209.993469) rotate(-90) scale(0.18 -0.18)">
      <defs>
       <path id="DejaVuSans-76" d="M 191 3500 
L 800 3500 
L 1894 563 
L 2988 3500 
L 3597 3500 
L 2284 0 
L 1503 0 
L 191 3500 
z
" transform="scale(0.015625)"/>
      </defs>
      <use xlink:href="#DejaVuSans-20"/>
      <use xlink:href="#DejaVuSans-69" transform="translate(31.787109 0)"/>
      <use xlink:href="#DejaVuSans-6e" transform="translate(59.570312 0)"/>
      <use xlink:href="#DejaVuSans-20" transform="translate(122.949219 0)"/>
      <use xlink:href="#DejaVuSans-67" transform="translate(154.736328 0)"/>
      <use xlink:href="#DejaVuSans-69" transform="translate(218.212891 0)"/>
      <use xlink:href="#DejaVuSans-76" transform="translate(245.996094 0)"/>
      <use xlink:href="#DejaVuSans-65" transform="translate(305.175781 0)"/>
      <use xlink:href="#DejaVuSans-6e" transform="translate(366.699219 0)"/>
      <use xlink:href="#DejaVuSans-20" transform="translate(430.078125 0)"/>
      <use xlink:href="#DejaVuSans-73" transform="translate(461.865234 0)"/>
      <use xlink:href="#DejaVuSans-74" transform="translate(513.964844 0)"/>
      <use xlink:href="#DejaVuSans-61" transform="translate(553.173828 0)"/>
      <use xlink:href="#DejaVuSans-74" transform="translate(614.453125 0)"/>
      <use xlink:href="#DejaVuSans-65" transform="translate(653.662109 0)"/>
     </g>
    </g>
   </g>
   <g id="line2d_13">
    <path d="M 102.690051 19.784364 
L 103.508719 23.81136 
L 104.327388 29.851855 
L 105.146056 34.382225 
L 105.964724 38.157535 
L 107.60206 47.721651 
L 108.420728 50.490211 
L 109.239397 57.03408 
L 110.058065 62.319513 
L 111.695401 66.598196 
L 112.514069 70.121818 
L 114.151406 75.407251 
L 114.970074 78.175811 
L 115.788742 81.699433 
L 117.426078 87.236553 
L 118.244747 90.760175 
L 119.063415 96.045607 
L 119.882083 100.324291 
L 120.700751 103.596225 
L 121.519419 106.364785 
L 122.338088 108.126596 
L 123.975424 116.432276 
L 124.794092 119.452524 
L 125.61276 121.717709 
L 126.431428 124.737956 
L 127.250097 127.254829 
L 128.068765 128.261578 
L 128.887433 130.275076 
L 129.706101 134.050385 
L 130.524769 137.070633 
L 131.343437 138.832444 
L 132.162106 141.097629 
L 132.980774 142.356065 
L 133.799442 144.872938 
L 134.61811 147.893185 
L 135.436778 151.416807 
L 136.255447 154.437055 
L 137.074115 156.953927 
L 137.892783 158.464051 
L 138.711451 160.980924 
L 141.167456 167.273105 
L 141.986124 170.293353 
L 142.804792 171.300102 
L 143.62346 172.558538 
L 144.442128 176.08216 
L 145.260797 178.347345 
L 146.079465 179.605782 
L 146.898133 183.632778 
L 147.716801 184.136153 
L 149.354138 187.408087 
L 150.172806 190.176647 
L 150.991474 191.938458 
L 151.810142 193.196895 
L 152.62881 194.203644 
L 153.447478 195.46208 
L 154.266147 196.217142 
L 155.084815 197.727265 
L 155.903483 199.740764 
L 156.722151 199.992451 
L 157.540819 201.502575 
L 158.359488 201.754262 
L 159.178156 202.509324 
L 159.996824 204.019447 
L 160.815492 204.522822 
L 161.63416 205.277884 
L 162.452828 206.284633 
L 164.090165 207.794756 
L 164.908833 210.059942 
L 165.727501 211.821753 
L 166.546169 212.07344 
L 167.364837 213.080189 
L 169.820842 216.855498 
L 170.63951 217.61056 
L 171.458178 218.617309 
L 172.276847 219.875745 
L 173.095515 219.875745 
L 173.914183 220.882495 
L 174.732851 222.392618 
L 175.551519 223.14768 
L 176.370187 224.406116 
L 177.188856 225.412865 
L 178.007524 225.412865 
L 178.826192 226.419615 
L 179.64486 226.419615 
L 181.282197 228.433113 
L 182.100865 229.943236 
L 182.919533 231.201673 
L 183.738201 232.711796 
L 184.556869 233.215171 
L 186.194206 235.732044 
L 187.012874 236.738793 
L 187.831542 237.493855 
L 188.65021 237.493855 
L 189.468878 237.997229 
L 190.287547 239.003978 
L 191.106215 239.003978 
L 191.924883 239.255665 
L 192.743551 240.010727 
L 193.562219 240.514102 
L 194.380888 240.765789 
L 195.199556 241.269164 
L 196.018224 241.520851 
L 196.836892 242.5276 
L 197.65556 243.030975 
L 198.474228 243.282662 
L 199.292897 244.037724 
L 200.111565 244.289411 
L 200.930233 244.289411 
L 201.748901 245.044473 
L 203.386237 246.051222 
L 204.204906 246.302909 
L 206.66091 247.813033 
L 207.479578 248.06472 
L 208.298247 248.568095 
L 209.935583 249.071469 
L 210.754251 250.078218 
L 211.572919 250.078218 
L 212.391588 250.329905 
L 213.210256 250.83328 
L 214.028924 251.084967 
L 214.847592 251.084967 
L 215.66626 251.840029 
L 216.484928 252.091716 
L 217.303597 252.846778 
L 218.122265 253.098465 
L 218.940933 253.60184 
L 219.759601 254.356902 
L 221.396937 255.363651 
L 222.215606 256.118713 
L 223.034274 256.118713 
L 223.852942 256.3704 
L 224.67161 256.873775 
L 225.490278 257.125462 
L 226.308947 257.628836 
L 227.127615 257.880524 
L 227.946283 258.383898 
L 231.220956 259.390647 
L 232.039624 259.390647 
L 233.67696 259.894022 
L 235.314297 259.894022 
L 236.951633 260.397396 
L 237.770301 261.152458 
L 241.044974 261.152458 
L 241.863642 261.90752 
L 242.68231 261.90752 
L 243.500978 262.159207 
L 244.319647 262.662582 
L 247.594319 262.662582 
L 249.231656 263.669331 
L 254.143665 263.669331 
L 254.962333 263.921018 
L 256.599669 263.921018 
L 257.418338 264.172705 
L 260.69301 264.172705 
L 262.330347 264.67608 
L 264.786351 264.67608 
L 265.605019 264.927767 
L 272.154365 264.927767 
L 272.973033 265.682829 
L 273.791701 265.934516 
L 278.70371 265.934516 
L 279.522378 266.186204 
L 280.341047 266.186204 
L 281.159715 266.689578 
L 281.978383 266.689578 
L 282.797051 266.941265 
L 284.434387 266.941265 
L 285.253056 267.192953 
L 286.071724 267.696327 
L 286.890392 267.948015 
L 287.70906 267.948015 
L 288.527728 268.199702 
L 299.170415 268.199702 
L 299.989083 268.451389 
L 301.626419 268.451389 
L 303.263756 268.954764 
L 304.901092 268.954764 
L 305.71976 269.206451 
L 308.175765 269.206451 
L 308.994433 269.458138 
L 317.181115 269.458138 
L 317.999783 269.961513 
L 318.818451 269.961513 
L 319.637119 270.2132 
L 341.74116 270.2132 
L 342.559828 270.464887 
L 356.477187 270.464887 
L 357.295856 270.716575 
L 367.119874 270.716575 
L 367.938542 270.968262 
L 430.157324 270.968262 
L 430.157324 270.968262 
" clip-path="url(#pa25a64782b)" style="fill: none; stroke: #000000; stroke-width: 3.5; stroke-linecap: square"/>
   </g>
   <g id="line2d_14">
    <path d="M 102.690051 271.471636 
L 103.508719 267.696327 
L 104.327388 261.90752 
L 107.60206 245.547847 
L 108.420728 242.779287 
L 110.058065 231.45336 
L 110.876733 229.691549 
L 111.695401 227.426364 
L 112.514069 224.154429 
L 114.151406 219.372371 
L 117.426078 208.046444 
L 118.244747 204.522822 
L 119.063415 199.489076 
L 119.882083 195.713767 
L 120.700751 192.69352 
L 121.519419 190.176647 
L 122.338088 188.414836 
L 123.156756 184.891215 
L 123.975424 180.612531 
L 124.794092 177.843971 
L 125.61276 175.830473 
L 126.431428 172.810225 
L 127.250097 170.293353 
L 128.068765 169.538291 
L 128.887433 167.77648 
L 130.524769 161.484298 
L 131.343437 159.722487 
L 132.162106 157.457302 
L 132.980774 156.198865 
L 134.61811 151.16512 
L 136.255447 145.376313 
L 137.074115 142.85944 
L 137.892783 141.349316 
L 139.530119 137.070633 
L 141.167456 133.043636 
L 141.986124 130.023389 
L 142.804792 129.01664 
L 143.62346 127.758204 
L 144.442128 124.737956 
L 145.260797 122.472771 
L 146.079465 121.214335 
L 146.898133 117.187338 
L 147.716801 116.683964 
L 149.354138 113.412029 
L 150.172806 110.643469 
L 150.991474 108.881658 
L 151.810142 107.623222 
L 152.62881 106.86816 
L 153.447478 105.609724 
L 154.266147 104.854662 
L 155.084815 103.596225 
L 155.903483 101.834415 
L 156.722151 101.582727 
L 157.540819 100.072604 
L 158.359488 99.820916 
L 159.178156 99.065855 
L 159.996824 97.555731 
L 160.815492 97.052356 
L 161.63416 96.297295 
L 162.452828 95.290545 
L 164.090165 93.780422 
L 165.727501 90.005113 
L 166.546169 89.753425 
L 167.364837 88.746676 
L 169.002174 86.229804 
L 169.820842 85.223055 
L 170.63951 84.467993 
L 172.276847 82.454495 
L 173.095515 82.454495 
L 173.914183 81.447745 
L 174.732851 79.937622 
L 175.551519 79.18256 
L 177.188856 77.169062 
L 178.007524 77.169062 
L 178.826192 76.162313 
L 179.64486 76.162313 
L 181.282197 74.148815 
L 182.100865 72.638691 
L 182.919533 71.380255 
L 183.738201 69.870131 
L 184.556869 69.366756 
L 185.375538 68.360007 
L 186.194206 67.101571 
L 187.012874 66.094822 
L 187.831542 65.33976 
L 188.65021 65.33976 
L 189.468878 64.836385 
L 190.287547 64.081324 
L 191.106215 64.081324 
L 191.924883 63.829636 
L 192.743551 63.074575 
L 193.562219 62.5712 
L 194.380888 62.319513 
L 195.199556 61.816138 
L 196.018224 61.564451 
L 196.836892 60.557702 
L 197.65556 60.054327 
L 198.474228 59.80264 
L 199.292897 59.047578 
L 200.111565 58.795891 
L 200.930233 58.795891 
L 201.748901 58.040829 
L 202.567569 57.537455 
L 204.204906 57.03408 
L 206.66091 55.523956 
L 207.479578 55.272269 
L 208.298247 54.768895 
L 209.935583 54.26552 
L 210.754251 53.510458 
L 211.572919 53.510458 
L 212.391588 53.258771 
L 213.210256 52.755396 
L 214.028924 52.503709 
L 214.847592 52.503709 
L 215.66626 51.748647 
L 216.484928 51.49696 
L 217.303597 50.741898 
L 218.122265 50.490211 
L 218.940933 49.986836 
L 219.759601 49.231775 
L 221.396937 48.225025 
L 222.215606 47.469964 
L 223.034274 47.469964 
L 223.852942 47.218276 
L 224.67161 46.714902 
L 225.490278 46.463215 
L 226.308947 45.95984 
L 227.127615 45.708153 
L 227.946283 45.204778 
L 231.220956 44.198029 
L 232.039624 44.198029 
L 233.67696 43.694655 
L 236.132965 43.694655 
L 236.951633 43.442967 
L 237.770301 42.687905 
L 241.044974 42.687905 
L 241.863642 41.932844 
L 242.68231 41.932844 
L 243.500978 41.681156 
L 244.319647 41.177782 
L 247.594319 41.177782 
L 249.231656 40.171033 
L 254.143665 40.171033 
L 254.962333 39.919345 
L 256.599669 39.919345 
L 257.418338 39.667658 
L 260.69301 39.667658 
L 262.330347 39.164284 
L 264.786351 39.164284 
L 265.605019 38.912596 
L 272.154365 38.912596 
L 272.973033 38.157535 
L 273.791701 37.905847 
L 278.70371 37.905847 
L 279.522378 37.65416 
L 280.341047 37.65416 
L 281.159715 37.150785 
L 281.978383 37.150785 
L 282.797051 36.899098 
L 284.434387 36.899098 
L 285.253056 36.647411 
L 286.071724 36.144036 
L 286.890392 35.892349 
L 287.70906 35.892349 
L 288.527728 35.640662 
L 299.170415 35.640662 
L 299.989083 35.388975 
L 301.626419 35.388975 
L 303.263756 34.8856 
L 304.901092 34.8856 
L 305.71976 34.633913 
L 308.175765 34.633913 
L 308.994433 34.382225 
L 317.181115 34.382225 
L 317.999783 33.878851 
L 318.818451 33.878851 
L 319.637119 33.627164 
L 341.74116 33.627164 
L 342.559828 33.375476 
L 356.477187 33.375476 
L 357.295856 33.123789 
L 367.119874 33.123789 
L 367.938542 32.872102 
L 430.157324 32.872102 
L 430.157324 32.872102 
" clip-path="url(#pa25a64782b)" style="fill: none; stroke: #4169e1; stroke-width: 3.5; stroke-linecap: square"/>
   </g>
   <g id="line2d_15">
    <path d="M 102.690051 271.471636 
L 103.508719 271.471636 
L 104.327388 271.219949 
L 105.146056 270.716575 
L 105.964724 270.716575 
L 106.783392 270.2132 
L 108.420728 270.2132 
L 109.239397 269.961513 
L 110.058065 269.961513 
L 110.876733 269.709825 
L 112.514069 269.709825 
L 114.151406 269.206451 
L 114.970074 269.206451 
L 115.788742 268.954764 
L 122.338088 268.954764 
L 123.156756 268.451389 
L 127.250097 268.451389 
L 129.706101 267.696327 
L 134.61811 267.696327 
L 135.436778 267.192953 
L 137.892783 267.192953 
L 138.711451 266.941265 
L 139.530119 266.941265 
L 140.348788 266.689578 
L 143.62346 266.689578 
L 144.442128 266.437891 
L 154.266147 266.437891 
L 155.903483 265.934516 
L 169.002174 265.934516 
L 169.820842 265.682829 
L 175.551519 265.682829 
L 176.370187 265.431142 
L 184.556869 265.431142 
L 185.375538 265.179455 
L 189.468878 265.179455 
L 190.287547 264.927767 
L 430.157324 264.927767 
L 430.157324 264.927767 
" clip-path="url(#pa25a64782b)" style="fill: none; stroke: #3a9dfa; stroke-width: 3; stroke-linecap: square"/>
   </g>
   <g id="line2d_16">
    <path d="M 102.690051 271.471636 
L 103.508719 271.219949 
L 105.146056 271.219949 
L 105.964724 270.968262 
L 106.783392 270.968262 
L 107.60206 270.716575 
L 108.420728 270.716575 
L 109.239397 270.464887 
L 111.695401 270.464887 
L 112.514069 270.2132 
L 114.970074 270.2132 
L 115.788742 269.961513 
L 118.244747 269.961513 
L 119.063415 269.709825 
L 119.882083 269.206451 
L 121.519419 268.703076 
L 123.975424 268.703076 
L 125.61276 268.199702 
L 128.887433 268.199702 
L 129.706101 267.948015 
L 133.799442 267.948015 
L 134.61811 267.44464 
L 135.436778 267.44464 
L 136.255447 267.192953 
L 143.62346 267.192953 
L 144.442128 266.941265 
L 151.810142 266.941265 
L 152.62881 266.689578 
L 164.090165 266.689578 
L 164.908833 266.437891 
L 171.458178 266.437891 
L 172.276847 266.186204 
L 202.567569 266.186204 
L 203.386237 265.934516 
L 209.935583 265.934516 
L 210.754251 265.682829 
L 235.314297 265.682829 
L 236.132965 265.431142 
L 430.157324 265.431142 
L 430.157324 265.431142 
" clip-path="url(#pa25a64782b)" style="fill: none; stroke: #808080; stroke-width: 3; stroke-linecap: square"/>
   </g>
   <g id="patch_3">
    <path d="M 86.316688 284.056 
L 86.316688 7.2 
" style="fill: none; stroke: #000000; stroke-width: 0.8; stroke-linejoin: miter; stroke-linecap: square"/>
   </g>
   <g id="patch_4">
    <path d="M 446.530687 284.056 
L 446.530687 7.2 
" style="fill: none; stroke: #000000; stroke-width: 0.8; stroke-linejoin: miter; stroke-linecap: square"/>
   </g>
   <g id="patch_5">
    <path d="M 86.316688 284.056 
L 446.530687 284.056 
" style="fill: none; stroke: #000000; stroke-width: 0.8; stroke-linejoin: miter; stroke-linecap: square"/>
   </g>
   <g id="patch_6">
    <path d="M 86.316688 7.2 
L 446.530687 7.2 
" style="fill: none; stroke: #000000; stroke-width: 0.8; stroke-linejoin: miter; stroke-linecap: square"/>
   </g>
   <g id="legend_1">
    <g id="patch_7">
     <path d="M 326.415062 198.118156 
L 434.630688 198.118156 
Q 438.030687 198.118156 438.030687 194.718156 
L 438.030687 96.537844 
Q 438.030687 93.137844 434.630688 93.137844 
L 326.415062 93.137844 
Q 323.015062 93.137844 323.015062 96.537844 
L 323.015062 194.718156 
Q 323.015062 198.118156 326.415062 198.118156 
z
" style="fill: #ffffff; opacity: 0.8; stroke: #cccccc; stroke-linejoin: miter"/>
    </g>
    <g id="line2d_17">
     <path d="M 329.815063 106.905187 
L 346.815063 106.905187 
L 363.815063 106.905187 
" style="fill: none; stroke: #000000; stroke-width: 3.5; stroke-linecap: square"/>
    </g>
    <g id="text_15">
     <!-- ϒ(1S) -->
     <g transform="translate(377.415063 112.855187) scale(0.17 -0.17)">
      <defs>
       <path id="DejaVuSans-3d2" d="M 3419 4053 
Q 2919 3828 2663 2988 
Q 2531 2547 2531 2031 
L 2531 0 
L 1897 0 
L 1897 2031 
Q 1897 2547 1766 2988 
Q 1509 3828 1009 4053 
Q 769 4163 583 4163 
Q 397 4163 272 4134 
L 272 4666 
Q 369 4697 542 4697 
Q 716 4697 981 4656 
Q 1991 4506 2216 3263 
Q 2550 4447 3447 4656 
Q 3566 4684 3714 4684 
Q 3863 4684 3994 4584 
Q 4253 4384 4253 4100 
Q 4253 3972 4200 3825 
Q 4122 3619 3888 3619 
Q 3472 3619 3419 4053 
z
" transform="scale(0.015625)"/>
       <path id="DejaVuSans-53" d="M 3425 4513 
L 3425 3897 
Q 3066 4069 2747 4153 
Q 2428 4238 2131 4238 
Q 1616 4238 1336 4038 
Q 1056 3838 1056 3469 
Q 1056 3159 1242 3001 
Q 1428 2844 1947 2747 
L 2328 2669 
Q 3034 2534 3370 2195 
Q 3706 1856 3706 1288 
Q 3706 609 3251 259 
Q 2797 -91 1919 -91 
Q 1588 -91 1214 -16 
Q 841 59 441 206 
L 441 856 
Q 825 641 1194 531 
Q 1563 422 1919 422 
Q 2459 422 2753 634 
Q 3047 847 3047 1241 
Q 3047 1584 2836 1778 
Q 2625 1972 2144 2069 
L 1759 2144 
Q 1053 2284 737 2584 
Q 422 2884 422 3419 
Q 422 4038 858 4394 
Q 1294 4750 2059 4750 
Q 2388 4750 2728 4690 
Q 3069 4631 3425 4513 
z
" transform="scale(0.015625)"/>
      </defs>
      <use xlink:href="#DejaVuSans-3d2"/>
      <use xlink:href="#DejaVuSans-28" transform="translate(69.873047 0)"/>
      <use xlink:href="#DejaVuSans-31" transform="translate(108.886719 0)"/>
      <use xlink:href="#DejaVuSans-53" transform="translate(172.509766 0)"/>
      <use xlink:href="#DejaVuSans-29" transform="translate(235.986328 0)"/>
     </g>
    </g>
    <g id="line2d_18">
     <path d="M 329.815063 131.858 
L 346.815063 131.858 
L 363.815063 131.858 
" style="fill: none; stroke: #4169e1; stroke-width: 3.5; stroke-linecap: square"/>
    </g>
    <g id="text_16">
     <!-- $ggg$ -->
     <g transform="translate(377.415063 137.808) scale(0.17 -0.17)">
      <defs>
       <path id="DejaVuSans-Oblique-67" d="M 3816 3500 
L 3219 434 
Q 3047 -456 2561 -893 
Q 2075 -1331 1253 -1331 
Q 950 -1331 690 -1286 
Q 431 -1241 206 -1147 
L 313 -588 
Q 525 -725 762 -790 
Q 1000 -856 1269 -856 
Q 1816 -856 2167 -557 
Q 2519 -259 2631 300 
L 2681 563 
Q 2441 288 2122 144 
Q 1803 0 1434 0 
Q 903 0 598 351 
Q 294 703 294 1319 
Q 294 1803 478 2267 
Q 663 2731 997 3091 
Q 1219 3328 1514 3456 
Q 1809 3584 2131 3584 
Q 2484 3584 2746 3420 
Q 3009 3256 3138 2956 
L 3238 3500 
L 3816 3500 
z
M 2950 2216 
Q 2950 2641 2750 2872 
Q 2550 3103 2181 3103 
Q 1953 3103 1747 3012 
Q 1541 2922 1394 2759 
Q 1156 2491 1023 2127 
Q 891 1763 891 1375 
Q 891 944 1092 712 
Q 1294 481 1672 481 
Q 2219 481 2584 976 
Q 2950 1472 2950 2216 
z
" transform="scale(0.015625)"/>
      </defs>
      <use xlink:href="#DejaVuSans-Oblique-67"/>
      <use xlink:href="#DejaVuSans-Oblique-67" transform="translate(63.476562 0)"/>
      <use xlink:href="#DejaVuSans-Oblique-67" transform="translate(126.953125 0)"/>
     </g>
    </g>
    <g id="line2d_19">
     <path d="M 329.815063 156.845344 
L 346.815063 156.845344 
L 363.815063 156.845344 
" style="fill: none; stroke: #3a9dfa; stroke-width: 3; stroke-linecap: square"/>
    </g>
    <g id="text_17">
     <!-- lepton -->
     <g transform="translate(377.415063 162.795344) scale(0.17 -0.17)">
      <use xlink:href="#DejaVuSans-6c"/>
      <use xlink:href="#DejaVuSans-65" transform="translate(27.783203 0)"/>
      <use xlink:href="#DejaVuSans-70" transform="translate(89.306641 0)"/>
      <use xlink:href="#DejaVuSans-74" transform="translate(152.783203 0)"/>
      <use xlink:href="#DejaVuSans-6f" transform="translate(191.992188 0)"/>
      <use xlink:href="#DejaVuSans-6e" transform="translate(253.173828 0)"/>
     </g>
    </g>
    <g id="line2d_20">
     <path d="M 329.815063 181.798156 
L 346.815063 181.798156 
L 363.815063 181.798156 
" style="fill: none; stroke: #808080; stroke-width: 3; stroke-linecap: square"/>
    </g>
    <g id="text_18">
     <!-- $\gamma gg$ -->
     <g transform="translate(377.415063 187.748156) scale(0.17 -0.17)">
      <defs>
       <path id="DejaVuSans-Oblique-3b3" d="M 1491 2950 
L 1838 788 
L 3456 3500 
L 4066 3500 
L 1972 0 
L 1713 -1331 
L 1138 -1331 
L 1397 0 
L 988 2613 
Q 925 3006 628 3006 
L 475 3006 
L 569 3500 
L 788 3500 
Q 1403 3500 1491 2950 
z
" transform="scale(0.015625)"/>
      </defs>
      <use xlink:href="#DejaVuSans-Oblique-3b3"/>
      <use xlink:href="#DejaVuSans-Oblique-67" transform="translate(59.179688 0)"/>
      <use xlink:href="#DejaVuSans-Oblique-67" transform="translate(122.65625 0)"/>
     </g>
    </g>
   </g>
  </g>
 </g>
 <defs>
  <clipPath id="pa25a64782b">
   <rect x="86.316688" y="7.2" width="360.214" height="276.856"/>
  </clipPath>
 </defs>
</svg>
