<?xml version="1.0" encoding="utf-8" standalone="no"?>
<!DOCTYPE svg PUBLIC "-//W3C//DTD SVG 1.1//EN"
  "http://www.w3.org/Graphics/SVG/1.1/DTD/svg11.dtd">
<svg xmlns:xlink="http://www.w3.org/1999/xlink" width="419.237188pt" height="315.489344pt" viewBox="0 0 419.237188 315.489344" xmlns="http://www.w3.org/2000/svg" version="1.1">
 <metadata>
  <rdf:RDF xmlns:dc="http://purl.org/dc/elements/1.1/" xmlns:cc="http://creativecommons.org/ns#" xmlns:rdf="http://www.w3.org/1999/02/22-rdf-syntax-ns#">
   <cc:Work>
    <dc:type rdf:resource="http://purl.org/dc/dcmitype/StillImage"/>
    <dc:date>2026-03-08T15:06:57.656845</dc:date>
    <dc:format>image/svg+xml</dc:format>
    <dc:creator>
     <cc:Agent>
      <dc:title>Matplotlib v3.10.6, https://matplotlib.org/</dc:title>
     </cc:Agent>
    </dc:creator>
   </cc:Work>
  </rdf:RDF>
 </metadata>
 <defs>
  <style type="text/css">*{stroke-linejoin: round; stroke-linecap: butt}</style>
 </defs>
 <g id="figure_1">
  <g id="patch_1">
   <path d="M 0 315.489344 
L 419.237188 315.489344 
L 419.237188 0 
L 0 0 
z
" style="fill: #ffffff"/>
  </g>
  <g id="axes_1">
   <g id="patch_2">
    <path d="M 46.965625 277.111219 
L 404.085625 277.111219 
L 404.085625 10.999219 
L 46.965625 10.999219 
z
" style="fill: #ffffff"/>
   </g>
   <g id="matplotlib.axis_1">
    <g id="xtick_1">
     <g id="line2d_1">
      <defs>
       <path id="m6fa3b5abbe" d="M 0 0 
L 0 3.5 
" style="stroke: #000000; stroke-width: 0.8"/>
      </defs>
      <g>
       <use xlink:href="#m6fa3b5abbe" x="46.965625" y="277.111219" style="stroke: #000000; stroke-width: 0.8"/>
      </g>
     </g>
     <g id="text_1">
      <!-- 0.0 -->
      <g transform="translate(39.014063 291.709656) scale(0.1 -0.1)">
       <defs>
        <path id="DejaVuSans-30" d="M 2034 4250 
Q 1547 4250 1301 3770 
Q 1056 3291 1056 2328 
Q 1056 1369 1301 889 
Q 1547 409 2034 409 
Q 2525 409 2770 889 
Q 3016 1369 3016 2328 
Q 3016 3291 2770 3770 
Q 2525 4250 2034 4250 
z
M 2034 4750 
Q 2819 4750 3233 4129 
Q 3647 3509 3647 2328 
Q 3647 1150 3233 529 
Q 2819 -91 2034 -91 
Q 1250 -91 836 529 
Q 422 1150 422 2328 
Q 422 3509 836 4129 
Q 1250 4750 2034 4750 
z
" transform="scale(0.015625)"/>
        <path id="DejaVuSans-2e" d="M 684 794 
L 1344 794 
L 1344 0 
L 684 0 
L 684 794 
z
" transform="scale(0.015625)"/>
       </defs>
       <use xlink:href="#DejaVuSans-30"/>
       <use xlink:href="#DejaVuSans-2e" transform="translate(63.623047 0)"/>
       <use xlink:href="#DejaVuSans-30" transform="translate(95.410156 0)"/>
      </g>
     </g>
    </g>
    <g id="xtick_2">
     <g id="line2d_2">
      <g>
       <use xlink:href="#m6fa3b5abbe" x="106.485625" y="277.111219" style="stroke: #000000; stroke-width: 0.8"/>
      </g>
     </g>
     <g id="text_2">
      <!-- 0.2 -->
      <g transform="translate(98.534063 291.709656) scale(0.1 -0.1)">
       <defs>
        <path id="DejaVuSans-32" d="M 1228 531 
L 3431 531 
L 3431 0 
L 469 0 
L 469 531 
Q 828 903 1448 1529 
Q 2069 2156 2228 2338 
Q 2531 2678 2651 2914 
Q 2772 3150 2772 3378 
Q 2772 3750 2511 3984 
Q 2250 4219 1831 4219 
Q 1534 4219 1204 4116 
Q 875 4013 500 3803 
L 500 4441 
Q 881 4594 1212 4672 
Q 1544 4750 1819 4750 
Q 2544 4750 2975 4387 
Q 3406 4025 3406 3419 
Q 3406 3131 3298 2873 
Q 3191 2616 2906 2266 
Q 2828 2175 2409 1742 
Q 1991 1309 1228 531 
z
" transform="scale(0.015625)"/>
       </defs>
       <use xlink:href="#DejaVuSans-30"/>
       <use xlink:href="#DejaVuSans-2e" transform="translate(63.623047 0)"/>
       <use xlink:href="#DejaVuSans-32" transform="translate(95.410156 0)"/>
      </g>
     </g>
    </g>
    <g id="xtick_3">
     <g id="line2d_3">
      <g>
       <use xlink:href="#m6fa3b5abbe" x="166.005625" y="277.111219" style="stroke: #000000; stroke-width: 0.8"/>
      </g>
     </g>
     <g id="text_3">
      <!-- 0.4 -->
      <g transform="translate(158.054063 291.709656) scale(0.1 -0.1)">
       <defs>
        <path id="DejaVuSans-34" d="M 2419 4116 
L 825 1625 
L 2419 1625 
L 2419 4116 
z
M 2253 4666 
L 3047 4666 
L 3047 1625 
L 3713 1625 
L 3713 1100 
L 3047 1100 
L 3047 0 
L 2419 0 
L 2419 1100 
L 313 1100 
L 313 1709 
L 2253 4666 
z
" transform="scale(0.015625)"/>
       </defs>
       <use xlink:href="#DejaVuSans-30"/>
       <use xlink:href="#DejaVuSans-2e" transform="translate(63.623047 0)"/>
       <use xlink:href="#DejaVuSans-34" transform="translate(95.410156 0)"/>
      </g>
     </g>
    </g>
    <g id="xtick_4">
     <g id="line2d_4">
      <g>
       <use xlink:href="#m6fa3b5abbe" x="225.525625" y="277.111219" style="stroke: #000000; stroke-width: 0.8"/>
      </g>
     </g>
     <g id="text_4">
      <!-- 0.6 -->
      <g transform="translate(217.574063 291.709656) scale(0.1 -0.1)">
       <defs>
        <path id="DejaVuSans-36" d="M 2113 2584 
Q 1688 2584 1439 2293 
Q 1191 2003 1191 1497 
Q 1191 994 1439 701 
Q 1688 409 2113 409 
Q 2538 409 2786 701 
Q 3034 994 3034 1497 
Q 3034 2003 2786 2293 
Q 2538 2584 2113 2584 
z
M 3366 4563 
L 3366 3988 
Q 3128 4100 2886 4159 
Q 2644 4219 2406 4219 
Q 1781 4219 1451 3797 
Q 1122 3375 1075 2522 
Q 1259 2794 1537 2939 
Q 1816 3084 2150 3084 
Q 2853 3084 3261 2657 
Q 3669 2231 3669 1497 
Q 3669 778 3244 343 
Q 2819 -91 2113 -91 
Q 1303 -91 875 529 
Q 447 1150 447 2328 
Q 447 3434 972 4092 
Q 1497 4750 2381 4750 
Q 2619 4750 2861 4703 
Q 3103 4656 3366 4563 
z
" transform="scale(0.015625)"/>
       </defs>
       <use xlink:href="#DejaVuSans-30"/>
       <use xlink:href="#DejaVuSans-2e" transform="translate(63.623047 0)"/>
       <use xlink:href="#DejaVuSans-36" transform="translate(95.410156 0)"/>
      </g>
     </g>
    </g>
    <g id="xtick_5">
     <g id="line2d_5">
      <g>
       <use xlink:href="#m6fa3b5abbe" x="285.045625" y="277.111219" style="stroke: #000000; stroke-width: 0.8"/>
      </g>
     </g>
     <g id="text_5">
      <!-- 0.8 -->
      <g transform="translate(277.094063 291.709656) scale(0.1 -0.1)">
       <defs>
        <path id="DejaVuSans-38" d="M 2034 2216 
Q 1584 2216 1326 1975 
Q 1069 1734 1069 1313 
Q 1069 891 1326 650 
Q 1584 409 2034 409 
Q 2484 409 2743 651 
Q 3003 894 3003 1313 
Q 3003 1734 2745 1975 
Q 2488 2216 2034 2216 
z
M 1403 2484 
Q 997 2584 770 2862 
Q 544 3141 544 3541 
Q 544 4100 942 4425 
Q 1341 4750 2034 4750 
Q 2731 4750 3128 4425 
Q 3525 4100 3525 3541 
Q 3525 3141 3298 2862 
Q 3072 2584 2669 2484 
Q 3125 2378 3379 2068 
Q 3634 1759 3634 1313 
Q 3634 634 3220 271 
Q 2806 -91 2034 -91 
Q 1263 -91 848 271 
Q 434 634 434 1313 
Q 434 1759 690 2068 
Q 947 2378 1403 2484 
z
M 1172 3481 
Q 1172 3119 1398 2916 
Q 1625 2713 2034 2713 
Q 2441 2713 2670 2916 
Q 2900 3119 2900 3481 
Q 2900 3844 2670 4047 
Q 2441 4250 2034 4250 
Q 1625 4250 1398 4047 
Q 1172 3844 1172 3481 
z
" transform="scale(0.015625)"/>
       </defs>
       <use xlink:href="#DejaVuSans-30"/>
       <use xlink:href="#DejaVuSans-2e" transform="translate(63.623047 0)"/>
       <use xlink:href="#DejaVuSans-38" transform="translate(95.410156 0)"/>
      </g>
     </g>
    </g>
    <g id="xtick_6">
     <g id="line2d_6">
      <g>
       <use xlink:href="#m6fa3b5abbe" x="344.565625" y="277.111219" style="stroke: #000000; stroke-width: 0.8"/>
      </g>
     </g>
     <g id="text_6">
      <!-- 1.0 -->
      <g transform="translate(336.614063 291.709656) scale(0.1 -0.1)">
       <defs>
        <path id="DejaVuSans-31" d="M 794 531 
L 1825 531 
L 1825 4091 
L 703 3866 
L 703 4441 
L 1819 4666 
L 2450 4666 
L 2450 531 
L 3481 531 
L 3481 0 
L 794 0 
L 794 531 
z
" transform="scale(0.015625)"/>
       </defs>
       <use xlink:href="#DejaVuSans-31"/>
       <use xlink:href="#DejaVuSans-2e" transform="translate(63.623047 0)"/>
       <use xlink:href="#DejaVuSans-30" transform="translate(95.410156 0)"/>
      </g>
     </g>
    </g>
    <g id="xtick_7">
     <g id="line2d_7">
      <g>
       <use xlink:href="#m6fa3b5abbe" x="404.085625" y="277.111219" style="stroke: #000000; stroke-width: 0.8"/>
      </g>
     </g>
     <g id="text_7">
      <!-- 1.2 -->
      <g transform="translate(396.134063 291.709656) scale(0.1 -0.1)">
       <use xlink:href="#DejaVuSans-31"/>
       <use xlink:href="#DejaVuSans-2e" transform="translate(63.623047 0)"/>
       <use xlink:href="#DejaVuSans-32" transform="translate(95.410156 0)"/>
      </g>
     </g>
    </g>
    <g id="text_8">
     <!-- time ($10^{-20} s$) -->
     <g transform="translate(192.175625 306.209656) scale(0.1 -0.1)">
      <defs>
       <path id="DejaVuSans-74" d="M 1172 4494 
L 1172 3500 
L 2356 3500 
L 2356 3053 
L 1172 3053 
L 1172 1153 
Q 1172 725 1289 603 
Q 1406 481 1766 481 
L 2356 481 
L 2356 0 
L 1766 0 
Q 1100 0 847 248 
Q 594 497 594 1153 
L 594 3053 
L 172 3053 
L 172 3500 
L 594 3500 
L 594 4494 
L 1172 4494 
z
" transform="scale(0.015625)"/>
       <path id="DejaVuSans-69" d="M 603 3500 
L 1178 3500 
L 1178 0 
L 603 0 
L 603 3500 
z
M 603 4863 
L 1178 4863 
L 1178 4134 
L 603 4134 
L 603 4863 
z
" transform="scale(0.015625)"/>
       <path id="DejaVuSans-6d" d="M 3328 2828 
Q 3544 3216 3844 3400 
Q 4144 3584 4550 3584 
Q 5097 3584 5394 3201 
Q 5691 2819 5691 2113 
L 5691 0 
L 5113 0 
L 5113 2094 
Q 5113 2597 4934 2840 
Q 4756 3084 4391 3084 
Q 3944 3084 3684 2787 
Q 3425 2491 3425 1978 
L 3425 0 
L 2847 0 
L 2847 2094 
Q 2847 2600 2669 2842 
Q 2491 3084 2119 3084 
Q 1678 3084 1418 2786 
Q 1159 2488 1159 1978 
L 1159 0 
L 581 0 
L 581 3500 
L 1159 3500 
L 1159 2956 
Q 1356 3278 1631 3431 
Q 1906 3584 2284 3584 
Q 2666 3584 2933 3390 
Q 3200 3197 3328 2828 
z
" transform="scale(0.015625)"/>
       <path id="DejaVuSans-65" d="M 3597 1894 
L 3597 1613 
L 953 1613 
Q 991 1019 1311 708 
Q 1631 397 2203 397 
Q 2534 397 2845 478 
Q 3156 559 3463 722 
L 3463 178 
Q 3153 47 2828 -22 
Q 2503 -91 2169 -91 
Q 1331 -91 842 396 
Q 353 884 353 1716 
Q 353 2575 817 3079 
Q 1281 3584 2069 3584 
Q 2775 3584 3186 3129 
Q 3597 2675 3597 1894 
z
M 3022 2063 
Q 3016 2534 2758 2815 
Q 2500 3097 2075 3097 
Q 1594 3097 1305 2825 
Q 1016 2553 972 2059 
L 3022 2063 
z
" transform="scale(0.015625)"/>
       <path id="DejaVuSans-20" transform="scale(0.015625)"/>
       <path id="DejaVuSans-28" d="M 1984 4856 
Q 1566 4138 1362 3434 
Q 1159 2731 1159 2009 
Q 1159 1288 1364 580 
Q 1569 -128 1984 -844 
L 1484 -844 
Q 1016 -109 783 600 
Q 550 1309 550 2009 
Q 550 2706 781 3412 
Q 1013 4119 1484 4856 
L 1984 4856 
z
" transform="scale(0.015625)"/>
       <path id="DejaVuSans-2212" d="M 678 2272 
L 4684 2272 
L 4684 1741 
L 678 1741 
L 678 2272 
z
" transform="scale(0.015625)"/>
       <path id="DejaVuSans-Oblique-73" d="M 3200 3397 
L 3091 2853 
Q 2863 2978 2609 3040 
Q 2356 3103 2088 3103 
Q 1634 3103 1373 2948 
Q 1113 2794 1113 2528 
Q 1113 2219 1719 2053 
Q 1766 2041 1788 2034 
L 1972 1978 
Q 2547 1819 2739 1644 
Q 2931 1469 2931 1166 
Q 2931 609 2489 259 
Q 2047 -91 1331 -91 
Q 1053 -91 747 -37 
Q 441 16 72 128 
L 184 722 
Q 500 559 806 475 
Q 1113 391 1394 391 
Q 1816 391 2080 572 
Q 2344 753 2344 1031 
Q 2344 1331 1650 1516 
L 1591 1531 
L 1394 1581 
Q 956 1697 753 1886 
Q 550 2075 550 2369 
Q 550 2928 970 3256 
Q 1391 3584 2113 3584 
Q 2397 3584 2667 3537 
Q 2938 3491 3200 3397 
z
" transform="scale(0.015625)"/>
       <path id="DejaVuSans-29" d="M 513 4856 
L 1013 4856 
Q 1481 4119 1714 3412 
Q 1947 2706 1947 2009 
Q 1947 1309 1714 600 
Q 1481 -109 1013 -844 
L 513 -844 
Q 928 -128 1133 580 
Q 1338 1288 1338 2009 
Q 1338 2731 1133 3434 
Q 928 4138 513 4856 
z
" transform="scale(0.015625)"/>
      </defs>
      <use xlink:href="#DejaVuSans-74" transform="translate(0 0.765625)"/>
      <use xlink:href="#DejaVuSans-69" transform="translate(39.208984 0.765625)"/>
      <use xlink:href="#DejaVuSans-6d" transform="translate(66.992188 0.765625)"/>
      <use xlink:href="#DejaVuSans-65" transform="translate(164.404297 0.765625)"/>
      <use xlink:href="#DejaVuSans-20" transform="translate(225.927734 0.765625)"/>
      <use xlink:href="#DejaVuSans-28" transform="translate(257.714844 0.765625)"/>
      <use xlink:href="#DejaVuSans-31" transform="translate(296.728516 0.765625)"/>
      <use xlink:href="#DejaVuSans-30" transform="translate(360.351562 0.765625)"/>
      <use xlink:href="#DejaVuSans-2212" transform="translate(424.931641 39.046875) scale(0.7)"/>
      <use xlink:href="#DejaVuSans-32" transform="translate(483.583984 39.046875) scale(0.7)"/>
      <use xlink:href="#DejaVuSans-30" transform="translate(528.120117 39.046875) scale(0.7)"/>
      <use xlink:href="#DejaVuSans-Oblique-73" transform="translate(575.390625 0.765625)"/>
      <use xlink:href="#DejaVuSans-29" transform="translate(627.490234 0.765625)"/>
     </g>
    </g>
   </g>
   <g id="matplotlib.axis_2">
    <g id="ytick_1">
     <g id="line2d_8">
      <defs>
       <path id="m94056c6909" d="M 0 0 
L -3.5 0 
" style="stroke: #000000; stroke-width: 0.8"/>
      </defs>
      <g>
       <use xlink:href="#m94056c6909" x="46.965625" y="277.111219" style="stroke: #000000; stroke-width: 0.8"/>
      </g>
     </g>
     <g id="text_9">
      <!-- 0 -->
      <g transform="translate(33.603125 280.910437) scale(0.1 -0.1)">
       <use xlink:href="#DejaVuSans-30"/>
      </g>
     </g>
    </g>
    <g id="ytick_2">
     <g id="line2d_9">
      <g>
       <use xlink:href="#m94056c6909" x="46.965625" y="223.888819" style="stroke: #000000; stroke-width: 0.8"/>
      </g>
     </g>
     <g id="text_10">
      <!-- 20 -->
      <g transform="translate(27.240625 227.688037) scale(0.1 -0.1)">
       <use xlink:href="#DejaVuSans-32"/>
       <use xlink:href="#DejaVuSans-30" transform="translate(63.623047 0)"/>
      </g>
     </g>
    </g>
    <g id="ytick_3">
     <g id="line2d_10">
      <g>
       <use xlink:href="#m94056c6909" x="46.965625" y="170.666419" style="stroke: #000000; stroke-width: 0.8"/>
      </g>
     </g>
     <g id="text_11">
      <!-- 40 -->
      <g transform="translate(27.240625 174.465637) scale(0.1 -0.1)">
       <use xlink:href="#DejaVuSans-34"/>
       <use xlink:href="#DejaVuSans-30" transform="translate(63.623047 0)"/>
      </g>
     </g>
    </g>
    <g id="ytick_4">
     <g id="line2d_11">
      <g>
       <use xlink:href="#m94056c6909" x="46.965625" y="117.444019" style="stroke: #000000; stroke-width: 0.8"/>
      </g>
     </g>
     <g id="text_12">
      <!-- 60 -->
      <g transform="translate(27.240625 121.243237) scale(0.1 -0.1)">
       <use xlink:href="#DejaVuSans-36"/>
       <use xlink:href="#DejaVuSans-30" transform="translate(63.623047 0)"/>
      </g>
     </g>
    </g>
    <g id="ytick_5">
     <g id="line2d_12">
      <g>
       <use xlink:href="#m94056c6909" x="46.965625" y="64.221619" style="stroke: #000000; stroke-width: 0.8"/>
      </g>
     </g>
     <g id="text_13">
      <!-- 80 -->
      <g transform="translate(27.240625 68.020837) scale(0.1 -0.1)">
       <use xlink:href="#DejaVuSans-38"/>
       <use xlink:href="#DejaVuSans-30" transform="translate(63.623047 0)"/>
      </g>
     </g>
    </g>
    <g id="ytick_6">
     <g id="line2d_13">
      <g>
       <use xlink:href="#m94056c6909" x="46.965625" y="10.999219" style="stroke: #000000; stroke-width: 0.8"/>
      </g>
     </g>
     <g id="text_14">
      <!-- 100 -->
      <g transform="translate(20.878125 14.798437) scale(0.1 -0.1)">
       <use xlink:href="#DejaVuSans-31"/>
       <use xlink:href="#DejaVuSans-30" transform="translate(63.623047 0)"/>
       <use xlink:href="#DejaVuSans-30" transform="translate(127.246094 0)"/>
      </g>
     </g>
    </g>
    <g id="text_15">
     <!-- Percentage of particles in given state -->
     <g transform="translate(14.798438 237.396625) rotate(-90) scale(0.1 -0.1)">
      <defs>
       <path id="DejaVuSans-50" d="M 1259 4147 
L 1259 2394 
L 2053 2394 
Q 2494 2394 2734 2622 
Q 2975 2850 2975 3272 
Q 2975 3691 2734 3919 
Q 2494 4147 2053 4147 
L 1259 4147 
z
M 628 4666 
L 2053 4666 
Q 2838 4666 3239 4311 
Q 3641 3956 3641 3272 
Q 3641 2581 3239 2228 
Q 2838 1875 2053 1875 
L 1259 1875 
L 1259 0 
L 628 0 
L 628 4666 
z
" transform="scale(0.015625)"/>
       <path id="DejaVuSans-72" d="M 2631 2963 
Q 2534 3019 2420 3045 
Q 2306 3072 2169 3072 
Q 1681 3072 1420 2755 
Q 1159 2438 1159 1844 
L 1159 0 
L 581 0 
L 581 3500 
L 1159 3500 
L 1159 2956 
Q 1341 3275 1631 3429 
Q 1922 3584 2338 3584 
Q 2397 3584 2469 3576 
Q 2541 3569 2628 3553 
L 2631 2963 
z
" transform="scale(0.015625)"/>
       <path id="DejaVuSans-63" d="M 3122 3366 
L 3122 2828 
Q 2878 2963 2633 3030 
Q 2388 3097 2138 3097 
Q 1578 3097 1268 2742 
Q 959 2388 959 1747 
Q 959 1106 1268 751 
Q 1578 397 2138 397 
Q 2388 397 2633 464 
Q 2878 531 3122 666 
L 3122 134 
Q 2881 22 2623 -34 
Q 2366 -91 2075 -91 
Q 1284 -91 818 406 
Q 353 903 353 1747 
Q 353 2603 823 3093 
Q 1294 3584 2113 3584 
Q 2378 3584 2631 3529 
Q 2884 3475 3122 3366 
z
" transform="scale(0.015625)"/>
       <path id="DejaVuSans-6e" d="M 3513 2113 
L 3513 0 
L 2938 0 
L 2938 2094 
Q 2938 2591 2744 2837 
Q 2550 3084 2163 3084 
Q 1697 3084 1428 2787 
Q 1159 2491 1159 1978 
L 1159 0 
L 581 0 
L 581 3500 
L 1159 3500 
L 1159 2956 
Q 1366 3272 1645 3428 
Q 1925 3584 2291 3584 
Q 2894 3584 3203 3211 
Q 3513 2838 3513 2113 
z
" transform="scale(0.015625)"/>
       <path id="DejaVuSans-61" d="M 2194 1759 
Q 1497 1759 1228 1600 
Q 959 1441 959 1056 
Q 959 750 1161 570 
Q 1363 391 1709 391 
Q 2188 391 2477 730 
Q 2766 1069 2766 1631 
L 2766 1759 
L 2194 1759 
z
M 3341 1997 
L 3341 0 
L 2766 0 
L 2766 531 
Q 2569 213 2275 61 
Q 1981 -91 1556 -91 
Q 1019 -91 701 211 
Q 384 513 384 1019 
Q 384 1609 779 1909 
Q 1175 2209 1959 2209 
L 2766 2209 
L 2766 2266 
Q 2766 2663 2505 2880 
Q 2244 3097 1772 3097 
Q 1472 3097 1187 3025 
Q 903 2953 641 2809 
L 641 3341 
Q 956 3463 1253 3523 
Q 1550 3584 1831 3584 
Q 2591 3584 2966 3190 
Q 3341 2797 3341 1997 
z
" transform="scale(0.015625)"/>
       <path id="DejaVuSans-67" d="M 2906 1791 
Q 2906 2416 2648 2759 
Q 2391 3103 1925 3103 
Q 1463 3103 1205 2759 
Q 947 2416 947 1791 
Q 947 1169 1205 825 
Q 1463 481 1925 481 
Q 2391 481 2648 825 
Q 2906 1169 2906 1791 
z
M 3481 434 
Q 3481 -459 3084 -895 
Q 2688 -1331 1869 -1331 
Q 1566 -1331 1297 -1286 
Q 1028 -1241 775 -1147 
L 775 -588 
Q 1028 -725 1275 -790 
Q 1522 -856 1778 -856 
Q 2344 -856 2625 -561 
Q 2906 -266 2906 331 
L 2906 616 
Q 2728 306 2450 153 
Q 2172 0 1784 0 
Q 1141 0 747 490 
Q 353 981 353 1791 
Q 353 2603 747 3093 
Q 1141 3584 1784 3584 
Q 2172 3584 2450 3431 
Q 2728 3278 2906 2969 
L 2906 3500 
L 3481 3500 
L 3481 434 
z
" transform="scale(0.015625)"/>
       <path id="DejaVuSans-6f" d="M 1959 3097 
Q 1497 3097 1228 2736 
Q 959 2375 959 1747 
Q 959 1119 1226 758 
Q 1494 397 1959 397 
Q 2419 397 2687 759 
Q 2956 1122 2956 1747 
Q 2956 2369 2687 2733 
Q 2419 3097 1959 3097 
z
M 1959 3584 
Q 2709 3584 3137 3096 
Q 3566 2609 3566 1747 
Q 3566 888 3137 398 
Q 2709 -91 1959 -91 
Q 1206 -91 779 398 
Q 353 888 353 1747 
Q 353 2609 779 3096 
Q 1206 3584 1959 3584 
z
" transform="scale(0.015625)"/>
       <path id="DejaVuSans-66" d="M 2375 4863 
L 2375 4384 
L 1825 4384 
Q 1516 4384 1395 4259 
Q 1275 4134 1275 3809 
L 1275 3500 
L 2222 3500 
L 2222 3053 
L 1275 3053 
L 1275 0 
L 697 0 
L 697 3053 
L 147 3053 
L 147 3500 
L 697 3500 
L 697 3744 
Q 697 4328 969 4595 
Q 1241 4863 1831 4863 
L 2375 4863 
z
" transform="scale(0.015625)"/>
       <path id="DejaVuSans-70" d="M 1159 525 
L 1159 -1331 
L 581 -1331 
L 581 3500 
L 1159 3500 
L 1159 2969 
Q 1341 3281 1617 3432 
Q 1894 3584 2278 3584 
Q 2916 3584 3314 3078 
Q 3713 2572 3713 1747 
Q 3713 922 3314 415 
Q 2916 -91 2278 -91 
Q 1894 -91 1617 61 
Q 1341 213 1159 525 
z
M 3116 1747 
Q 3116 2381 2855 2742 
Q 2594 3103 2138 3103 
Q 1681 3103 1420 2742 
Q 1159 2381 1159 1747 
Q 1159 1113 1420 752 
Q 1681 391 2138 391 
Q 2594 391 2855 752 
Q 3116 1113 3116 1747 
z
" transform="scale(0.015625)"/>
       <path id="DejaVuSans-6c" d="M 603 4863 
L 1178 4863 
L 1178 0 
L 603 0 
L 603 4863 
z
" transform="scale(0.015625)"/>
       <path id="DejaVuSans-73" d="M 2834 3397 
L 2834 2853 
Q 2591 2978 2328 3040 
Q 2066 3103 1784 3103 
Q 1356 3103 1142 2972 
Q 928 2841 928 2578 
Q 928 2378 1081 2264 
Q 1234 2150 1697 2047 
L 1894 2003 
Q 2506 1872 2764 1633 
Q 3022 1394 3022 966 
Q 3022 478 2636 193 
Q 2250 -91 1575 -91 
Q 1294 -91 989 -36 
Q 684 19 347 128 
L 347 722 
Q 666 556 975 473 
Q 1284 391 1588 391 
Q 1994 391 2212 530 
Q 2431 669 2431 922 
Q 2431 1156 2273 1281 
Q 2116 1406 1581 1522 
L 1381 1569 
Q 847 1681 609 1914 
Q 372 2147 372 2553 
Q 372 3047 722 3315 
Q 1072 3584 1716 3584 
Q 2034 3584 2315 3537 
Q 2597 3491 2834 3397 
z
" transform="scale(0.015625)"/>
       <path id="DejaVuSans-76" d="M 191 3500 
L 800 3500 
L 1894 563 
L 2988 3500 
L 3597 3500 
L 2284 0 
L 1503 0 
L 191 3500 
z
" transform="scale(0.015625)"/>
      </defs>
      <use xlink:href="#DejaVuSans-50"/>
      <use xlink:href="#DejaVuSans-65" transform="translate(56.677734 0)"/>
      <use xlink:href="#DejaVuSans-72" transform="translate(118.201172 0)"/>
      <use xlink:href="#DejaVuSans-63" transform="translate(157.064453 0)"/>
      <use xlink:href="#DejaVuSans-65" transform="translate(212.044922 0)"/>
      <use xlink:href="#DejaVuSans-6e" transform="translate(273.568359 0)"/>
      <use xlink:href="#DejaVuSans-74" transform="translate(336.947266 0)"/>
      <use xlink:href="#DejaVuSans-61" transform="translate(376.15625 0)"/>
      <use xlink:href="#DejaVuSans-67" transform="translate(437.435547 0)"/>
      <use xlink:href="#DejaVuSans-65" transform="translate(500.912109 0)"/>
      <use xlink:href="#DejaVuSans-20" transform="translate(562.435547 0)"/>
      <use xlink:href="#DejaVuSans-6f" transform="translate(594.222656 0)"/>
      <use xlink:href="#DejaVuSans-66" transform="translate(655.404297 0)"/>
      <use xlink:href="#DejaVuSans-20" transform="translate(690.609375 0)"/>
      <use xlink:href="#DejaVuSans-70" transform="translate(722.396484 0)"/>
      <use xlink:href="#DejaVuSans-61" transform="translate(785.873047 0)"/>
      <use xlink:href="#DejaVuSans-72" transform="translate(847.152344 0)"/>
      <use xlink:href="#DejaVuSans-74" transform="translate(888.265625 0)"/>
      <use xlink:href="#DejaVuSans-69" transform="translate(927.474609 0)"/>
      <use xlink:href="#DejaVuSans-63" transform="translate(955.257812 0)"/>
      <use xlink:href="#DejaVuSans-6c" transform="translate(1010.238281 0)"/>
      <use xlink:href="#DejaVuSans-65" transform="translate(1038.021484 0)"/>
      <use xlink:href="#DejaVuSans-73" transform="translate(1099.544922 0)"/>
      <use xlink:href="#DejaVuSans-20" transform="translate(1151.644531 0)"/>
      <use xlink:href="#DejaVuSans-69" transform="translate(1183.431641 0)"/>
      <use xlink:href="#DejaVuSans-6e" transform="translate(1211.214844 0)"/>
      <use xlink:href="#DejaVuSans-20" transform="translate(1274.59375 0)"/>
      <use xlink:href="#DejaVuSans-67" transform="translate(1306.380859 0)"/>
      <use xlink:href="#DejaVuSans-69" transform="translate(1369.857422 0)"/>
      <use xlink:href="#DejaVuSans-76" transform="translate(1397.640625 0)"/>
      <use xlink:href="#DejaVuSans-65" transform="translate(1456.820312 0)"/>
      <use xlink:href="#DejaVuSans-6e" transform="translate(1518.34375 0)"/>
      <use xlink:href="#DejaVuSans-20" transform="translate(1581.722656 0)"/>
      <use xlink:href="#DejaVuSans-73" transform="translate(1613.509766 0)"/>
      <use xlink:href="#DejaVuSans-74" transform="translate(1665.609375 0)"/>
      <use xlink:href="#DejaVuSans-61" transform="translate(1704.818359 0)"/>
      <use xlink:href="#DejaVuSans-74" transform="translate(1766.097656 0)"/>
      <use xlink:href="#DejaVuSans-65" transform="translate(1805.306641 0)"/>
     </g>
    </g>
   </g>
   <g id="line2d_14">
    <path d="M 46.965625 10.999219 
L 47.858425 13.101504 
L 48.751225 14.911065 
L 49.644025 17.066572 
L 52.322425 22.362201 
L 54.108025 26.194214 
L 55.893625 29.946393 
L 56.786425 31.622899 
L 58.572025 35.508134 
L 60.357625 39.020812 
L 62.143225 42.985881 
L 63.036025 44.928499 
L 64.821625 47.908953 
L 65.714425 50.06446 
L 75.535225 68.106854 
L 76.428025 69.277747 
L 78.213625 72.497702 
L 80.892025 77.740108 
L 82.677625 80.614118 
L 84.463225 84.20663 
L 88.034425 90.140928 
L 88.927225 91.764211 
L 90.712825 94.265664 
L 93.391225 98.337177 
L 99.640825 107.837376 
L 100.533625 109.008268 
L 101.426425 110.392051 
L 103.212025 112.680614 
L 104.104825 114.011174 
L 104.997625 115.740902 
L 105.890425 117.124684 
L 107.676025 119.333414 
L 112.140025 125.347545 
L 113.032825 126.917606 
L 113.925625 127.848998 
L 118.389625 133.969574 
L 121.068025 137.322585 
L 121.960825 138.227366 
L 122.853625 139.744204 
L 126.424825 143.762496 
L 128.210425 145.465612 
L 129.103225 146.663116 
L 132.674425 150.415296 
L 133.567225 151.666022 
L 136.245625 154.087641 
L 137.138425 155.231923 
L 138.031225 156.030259 
L 139.816825 157.813209 
L 140.709625 158.5051 
L 141.602425 159.409881 
L 142.495225 160.075161 
L 143.388025 160.900108 
L 145.173625 162.975782 
L 146.066425 163.907174 
L 146.959225 164.599065 
L 150.530425 168.164966 
L 151.423225 169.256025 
L 153.208825 170.373696 
L 154.994425 172.23648 
L 155.887225 172.954982 
L 156.780025 173.939596 
L 157.672825 174.551654 
L 159.458425 176.174937 
L 161.244025 178.250611 
L 162.136825 179.102169 
L 163.029625 179.767449 
L 164.815225 181.577011 
L 165.708025 182.242291 
L 167.493625 183.838963 
L 169.279225 185.063078 
L 170.172025 186.047692 
L 173.743225 188.549145 
L 174.636025 189.53376 
L 179.992825 193.711718 
L 180.885625 194.217331 
L 181.778425 195.042278 
L 182.671225 195.627724 
L 183.564025 196.479283 
L 184.456825 196.984896 
L 186.242425 198.448512 
L 187.135225 199.140403 
L 188.028025 199.672627 
L 188.920825 200.470963 
L 191.599225 202.067635 
L 193.384825 203.025638 
L 196.956025 205.580313 
L 198.741625 206.61815 
L 199.634425 207.097152 
L 201.420025 208.321267 
L 203.205625 209.332492 
L 204.098425 209.758272 
L 204.991225 210.024384 
L 206.776825 211.088832 
L 207.669625 211.541222 
L 208.562425 212.179891 
L 210.348025 212.925004 
L 211.240825 213.404006 
L 212.133625 214.069286 
L 213.026425 214.38862 
L 213.919225 214.920844 
L 215.704825 216.224793 
L 217.490425 217.209408 
L 218.383225 217.741632 
L 220.168825 218.327078 
L 221.061625 218.859302 
L 221.954425 219.178636 
L 222.847225 219.657638 
L 223.740025 220.296307 
L 224.632825 220.775308 
L 225.525625 221.014809 
L 229.989625 223.063872 
L 230.882425 223.409817 
L 232.668025 224.36782 
L 233.560825 224.740377 
L 234.453625 224.953267 
L 235.346425 225.352435 
L 236.239225 225.884659 
L 237.132025 226.203993 
L 238.024825 226.709606 
L 239.810425 227.401497 
L 240.703225 227.667609 
L 242.488825 228.492556 
L 244.274425 229.051392 
L 245.167225 229.503782 
L 249.631225 231.073843 
L 254.988025 233.069683 
L 255.880825 233.255961 
L 256.773625 233.947852 
L 257.666425 234.240576 
L 259.452025 235.092134 
L 260.344825 235.384857 
L 261.237625 235.464691 
L 268.380025 238.312089 
L 270.165625 239.00398 
L 271.058425 239.243481 
L 272.844025 239.908761 
L 273.736825 240.041817 
L 274.629625 240.54743 
L 275.522425 240.919987 
L 277.308025 241.452211 
L 279.093625 241.984435 
L 279.986425 242.197324 
L 280.879225 242.569881 
L 282.664825 243.102105 
L 285.343225 244.033497 
L 290.700025 245.364057 
L 291.592825 245.576947 
L 293.378425 246.295449 
L 296.056825 247.120396 
L 297.842425 247.333286 
L 302.306425 248.956569 
L 308.556025 250.52663 
L 322.840825 253.161139 
L 325.519225 253.746585 
L 329.983225 254.385254 
L 331.768825 254.51831 
L 336.232825 255.423091 
L 338.018425 255.556147 
L 338.911225 255.63598 
L 339.804025 255.84887 
L 340.696825 255.902092 
L 348.732025 257.498764 
L 350.517625 257.711654 
L 352.303225 258.243878 
L 375.516025 261.6235 
L 377.301625 261.83639 
L 379.087225 262.04928 
L 380.872825 262.262169 
L 382.658425 262.71456 
L 395.157625 264.098342 
L 396.943225 264.258009 
L 399.621625 264.683788 
L 400.514425 264.737011 
L 402.300025 265.136179 
L 404.085625 265.428902 
L 404.085625 265.428902 
" clip-path="url(#p85a6a4e93d)" style="fill: none; stroke: #b22222; stroke-width: 3; stroke-linecap: square"/>
   </g>
   <g id="line2d_15">
    <path d="M 46.965625 277.111219 
L 50.536825 276.818496 
L 52.322425 276.578995 
L 56.786425 276.25966 
L 58.572025 275.966937 
L 60.357625 275.780659 
L 63.928825 275.461324 
L 64.821625 275.408102 
L 65.714425 275.221824 
L 67.500025 275.115379 
L 72.856825 274.742822 
L 80.892025 274.183987 
L 83.570425 273.917875 
L 88.034425 273.678374 
L 95.176825 273.119539 
L 104.997625 272.720371 
L 108.568825 272.48087 
L 113.925625 272.214758 
L 115.711225 272.02848 
L 116.604025 272.02848 
L 118.389625 271.81559 
L 138.031225 270.724531 
L 141.602425 270.618086 
L 146.066425 270.458419 
L 173.743225 269.527027 
L 175.528825 269.420582 
L 177.314425 269.314137 
L 182.671225 269.207692 
L 188.920825 269.127859 
L 192.492025 269.021414 
L 209.455225 268.622246 
L 213.026425 268.515801 
L 229.989625 268.116633 
L 240.703225 268.010188 
L 245.167225 267.983577 
L 255.880825 267.877132 
L 267.487225 267.637632 
L 280.879225 267.531187 
L 288.914425 267.398131 
L 296.056825 267.291686 
L 302.306425 267.211852 
L 318.376825 267.105408 
L 329.983225 266.865907 
L 347.839225 266.759462 
L 352.303225 266.732851 
L 376.408825 266.626406 
L 380.872825 266.599795 
L 404.085625 266.519961 
L 404.085625 266.519961 
" clip-path="url(#p85a6a4e93d)" style="fill: none; stroke-dasharray: 2,3.3; stroke-dashoffset: 0; stroke: #808080; stroke-opacity: 0.6; stroke-width: 2"/>
   </g>
   <g id="line2d_16">
    <path d="M 46.965625 277.111219 
L 49.644025 273.385651 
L 51.429625 271.043865 
L 54.108025 267.078796 
L 56.786425 263.060505 
L 60.357625 258.403545 
L 62.143225 255.556147 
L 63.036025 254.332032 
L 64.821625 252.389414 
L 66.607225 249.754905 
L 71.071225 244.219776 
L 71.964025 242.99566 
L 72.856825 242.037657 
L 75.535225 238.125811 
L 76.428025 237.354086 
L 80.892025 231.127065 
L 81.784825 230.248896 
L 82.677625 229.211059 
L 84.463225 226.682995 
L 86.248825 224.474265 
L 87.141625 223.675929 
L 88.927225 221.25431 
L 91.605625 218.80608 
L 93.391225 217.076352 
L 96.069625 214.175731 
L 96.962425 212.925004 
L 97.855225 211.913779 
L 98.748025 211.142054 
L 99.640825 210.184051 
L 100.533625 209.412326 
L 101.426425 208.321267 
L 104.104825 205.873036 
L 104.997625 204.728755 
L 111.247225 198.767846 
L 112.140025 198.129177 
L 113.032825 196.878451 
L 113.925625 196.319616 
L 117.496825 192.833548 
L 121.960825 188.815257 
L 123.746425 186.952473 
L 125.532025 185.621913 
L 126.424825 184.850188 
L 127.317625 184.424409 
L 128.210425 183.759129 
L 129.996025 182.242291 
L 131.781625 181.151232 
L 132.674425 180.45934 
L 133.567225 179.581171 
L 134.460025 179.155392 
L 135.352825 178.4635 
L 136.245625 177.957888 
L 137.138425 177.13294 
L 138.031225 176.600716 
L 139.816825 175.270156 
L 140.709625 174.791155 
L 141.602425 174.099264 
L 142.495225 173.593651 
L 146.066425 170.879308 
L 147.852025 169.708416 
L 148.744825 168.936691 
L 150.530425 167.659353 
L 151.423225 166.807795 
L 153.208825 166.062681 
L 154.994425 164.865177 
L 164.815225 158.5051 
L 166.600825 157.573708 
L 167.493625 156.988262 
L 169.279225 156.136704 
L 170.172025 155.418201 
L 171.957625 154.593254 
L 172.850425 154.06103 
L 173.743225 153.688473 
L 174.636025 153.049804 
L 175.528825 152.597414 
L 176.421625 151.958745 
L 178.207225 151.133798 
L 179.992825 150.175795 
L 180.885625 149.803238 
L 183.564025 148.100121 
L 185.349625 147.301785 
L 187.135225 146.157504 
L 188.028025 145.838169 
L 189.813625 144.853555 
L 196.063225 142.352102 
L 196.956025 141.846489 
L 204.098425 138.892646 
L 204.991225 138.679756 
L 205.884025 138.253977 
L 207.669625 137.64192 
L 208.562425 137.162918 
L 210.348025 136.683916 
L 212.133625 136.018636 
L 213.919225 135.43319 
L 216.597625 134.262297 
L 217.490425 133.969574 
L 218.383225 133.490572 
L 220.168825 133.171238 
L 221.061625 132.718848 
L 223.740025 131.814067 
L 224.632825 131.468121 
L 225.525625 131.361676 
L 228.204025 130.56334 
L 229.096825 130.164172 
L 233.560825 128.833612 
L 234.453625 128.753779 
L 238.917625 127.290163 
L 240.703225 126.970828 
L 242.488825 126.33216 
L 249.631225 124.522598 
L 255.880825 122.979148 
L 256.773625 122.473536 
L 257.666425 122.34048 
L 259.452025 121.6752 
L 260.344825 121.46231 
L 261.237625 121.435699 
L 262.130425 121.276032 
L 264.808825 120.504307 
L 265.701625 120.318028 
L 267.487225 119.705971 
L 271.058425 118.827801 
L 274.629625 117.976243 
L 276.415225 117.577075 
L 278.200825 117.204518 
L 286.236025 115.421568 
L 288.021625 115.075622 
L 291.592825 114.463564 
L 292.485625 114.091008 
L 296.056825 113.319283 
L 297.842425 113.159616 
L 298.735225 112.81367 
L 299.628025 112.627392 
L 300.520825 112.308057 
L 305.877625 111.243609 
L 307.663225 111.004108 
L 314.805625 109.833216 
L 319.269625 109.27438 
L 321.055225 109.167936 
L 324.626425 108.635712 
L 325.519225 108.422822 
L 329.090425 108.130099 
L 330.876025 107.997043 
L 332.661625 107.837376 
L 336.232825 107.331763 
L 340.696825 107.092262 
L 353.196025 105.309312 
L 354.088825 105.309312 
L 355.874425 105.096422 
L 358.552825 104.883532 
L 359.445625 104.644032 
L 362.124025 104.431142 
L 363.909625 104.298086 
L 367.480825 103.819084 
L 369.266425 103.659417 
L 377.301625 102.83447 
L 379.087225 102.648192 
L 380.872825 102.488524 
L 383.551225 102.142579 
L 386.229625 101.876467 
L 388.015225 101.743411 
L 389.800825 101.583744 
L 396.943225 101.104742 
L 399.621625 100.732185 
L 400.514425 100.705574 
L 402.300025 100.359628 
L 404.085625 100.17335 
L 404.085625 100.17335 
" clip-path="url(#p85a6a4e93d)" style="fill: none; stroke-dasharray: 12.8,3.2,2,3.2; stroke-dashoffset: 0; stroke: #808080; stroke-opacity: 0.6; stroke-width: 2"/>
   </g>
   <g id="line2d_17">
    <path d="M 46.965625 277.111219 
L 47.858425 276.951552 
L 49.644025 276.818496 
L 54.108025 276.525772 
L 63.036025 276.073382 
L 65.714425 275.993548 
L 70.178425 275.80727 
L 72.856825 275.727436 
L 75.535225 275.674214 
L 78.213625 275.487936 
L 79.106425 275.35488 
L 81.784825 275.275046 
L 95.176825 274.583155 
L 100.533625 274.47671 
L 105.890425 274.237209 
L 110.354425 274.130764 
L 114.818425 273.971097 
L 124.639225 273.891264 
L 128.210425 273.784819 
L 146.066425 273.35904 
L 155.887225 273.252595 
L 170.172025 272.93326 
L 177.314425 272.826816 
L 183.564025 272.746982 
L 188.028025 272.640537 
L 196.956025 272.48087 
L 211.240825 272.374425 
L 219.276025 272.241369 
L 228.204025 272.134924 
L 233.560825 272.081702 
L 241.596025 271.975257 
L 244.274425 271.922035 
L 260.344825 271.81559 
L 263.023225 271.762368 
L 288.021625 271.655923 
L 292.485625 271.629312 
L 307.663225 271.522867 
L 312.127225 271.496256 
L 338.911225 271.416422 
L 341.589625 271.3632 
L 371.052025 271.256755 
L 375.516025 271.230144 
L 404.085625 271.15031 
L 404.085625 271.15031 
" clip-path="url(#p85a6a4e93d)" style="fill: none; stroke-dasharray: 7.4,3.2; stroke-dashoffset: 0; stroke: #808080; stroke-opacity: 0.6; stroke-width: 2"/>
   </g>
   <g id="LineCollection_1">
    <path d="M 46.965625 223.888819 
L 231.775225 223.888819 
" clip-path="url(#p85a6a4e93d)" style="fill: none; stroke-dasharray: 7.4,3.2; stroke-dashoffset: 0; stroke: #000000; stroke-width: 2"/>
   </g>
   <g id="LineCollection_2">
    <path d="M 231.775225 277.111219 
L 231.775225 223.888819 
" clip-path="url(#p85a6a4e93d)" style="fill: none; stroke-dasharray: 7.4,3.2; stroke-dashoffset: 0; stroke: #000000; stroke-width: 2"/>
   </g>
   <g id="patch_3">
    <path d="M 46.965625 277.111219 
L 46.965625 10.999219 
" style="fill: none; stroke: #000000; stroke-width: 0.8; stroke-linejoin: miter; stroke-linecap: square"/>
   </g>
   <g id="patch_4">
    <path d="M 404.085625 277.111219 
L 404.085625 10.999219 
" style="fill: none; stroke: #000000; stroke-width: 0.8; stroke-linejoin: miter; stroke-linecap: square"/>
   </g>
   <g id="patch_5">
    <path d="M 46.965625 277.111219 
L 404.085625 277.111219 
" style="fill: none; stroke: #000000; stroke-width: 0.8; stroke-linejoin: miter; stroke-linecap: square"/>
   </g>
   <g id="patch_6">
    <path d="M 46.965625 10.999219 
L 404.085625 10.999219 
" style="fill: none; stroke: #000000; stroke-width: 0.8; stroke-linejoin: miter; stroke-linecap: square"/>
   </g>
   <g id="legend_1">
    <g id="patch_7">
     <path d="M 334.085625 77.774219 
L 397.085625 77.774219 
Q 399.085625 77.774219 399.085625 75.774219 
L 399.085625 17.999219 
Q 399.085625 15.999219 397.085625 15.999219 
L 334.085625 15.999219 
Q 332.085625 15.999219 332.085625 17.999219 
L 332.085625 75.774219 
Q 332.085625 77.774219 334.085625 77.774219 
z
" style="fill: #ffffff; opacity: 0.8; stroke: #cccccc; stroke-linejoin: miter"/>
    </g>
    <g id="line2d_18">
     <path d="M 336.085625 24.097656 
L 346.085625 24.097656 
L 356.085625 24.097656 
" style="fill: none; stroke: #b22222; stroke-width: 3; stroke-linecap: square"/>
    </g>
    <g id="text_16">
     <!-- $J/\psi$ -->
     <g transform="translate(364.085625 27.597656) scale(0.1 -0.1)">
      <defs>
       <path id="DejaVuSans-Oblique-4a" d="M 1069 4666 
L 1703 4666 
L 856 325 
Q 691 -522 298 -901 
Q -94 -1281 -800 -1281 
L -1050 -1281 
L -947 -750 
L -750 -750 
Q -328 -750 -109 -509 
Q 109 -269 225 325 
L 1069 4666 
z
" transform="scale(0.015625)"/>
       <path id="DejaVuSans-2f" d="M 1625 4666 
L 2156 4666 
L 531 -594 
L 0 -594 
L 1625 4666 
z
" transform="scale(0.015625)"/>
       <path id="DejaVuSans-Oblique-3c8" d="M 1591 -78 
Q 891 38 616 341 
Q 278 713 425 1472 
L 819 3500 
L 1400 3500 
L 1009 1494 
Q 900 922 1119 684 
Q 1313 478 1691 434 
L 2284 3500 
L 2856 3500 
L 2263 438 
Q 2681 481 2928 688 
Q 3247 950 3353 1497 
L 3741 3500 
L 4322 3500 
L 3928 1475 
Q 3775 688 3300 344 
Q 2872 34 2163 -75 
L 1919 -1331 
L 1347 -1331 
L 1591 -78 
z
" transform="scale(0.015625)"/>
      </defs>
      <use xlink:href="#DejaVuSans-Oblique-4a" transform="translate(0 0.09375)"/>
      <use xlink:href="#DejaVuSans-2f" transform="translate(29.492188 0.09375)"/>
      <use xlink:href="#DejaVuSans-Oblique-3c8" transform="translate(63.183594 0.09375)"/>
     </g>
    </g>
    <g id="line2d_19">
     <path d="M 336.085625 38.796094 
L 346.085625 38.796094 
L 356.085625 38.796094 
" style="fill: none; stroke-dasharray: 2,3.3; stroke-dashoffset: 0; stroke: #808080; stroke-opacity: 0.6; stroke-width: 2"/>
    </g>
    <g id="text_17">
     <!-- $\ell\bar{\ell}$ -->
     <g transform="translate(364.085625 42.296094) scale(0.1 -0.1)">
      <defs>
       <path id="DejaVuSans-Oblique-2113" d="M 950 838 
Q 1078 213 1350 213 
Q 1531 213 1766 572 
L 2181 572 
Q 1994 253 1775 88 
Q 1538 -91 1319 -91 
Q 831 -91 634 344 
L 400 0 
L -88 0 
Q 250 459 500 888 
Q 469 1131 469 1397 
Q 469 1872 566 2347 
Q 931 4131 1256 4497 
Q 1481 4750 1866 4750 
Q 2256 4750 2256 4209 
Q 2253 3966 2197 3675 
Q 1972 2484 950 838 
z
M 947 1656 
Q 1531 2744 1709 3613 
Q 1803 4072 1803 4191 
Q 1803 4406 1725 4406 
Q 1384 4134 1081 2516 
Q 997 2063 947 1656 
z
" transform="scale(0.015625)"/>
       <path id="DejaVuSans-304" d="M -2518 4769 
L -650 4769 
L -650 4306 
L -2518 4306 
L -2518 4769 
z
" transform="scale(0.015625)"/>
      </defs>
      <use xlink:href="#DejaVuSans-Oblique-2113" transform="translate(0 0.046875)"/>
      <use xlink:href="#DejaVuSans-304" transform="translate(91.979492 19.484375)"/>
      <use xlink:href="#DejaVuSans-Oblique-2113" transform="translate(41.308594 0.046875)"/>
     </g>
    </g>
    <g id="line2d_20">
     <path d="M 336.085625 53.474219 
L 346.085625 53.474219 
L 356.085625 53.474219 
" style="fill: none; stroke-dasharray: 12.8,3.2,2,3.2; stroke-dashoffset: 0; stroke: #808080; stroke-opacity: 0.6; stroke-width: 2"/>
    </g>
    <g id="text_18">
     <!-- $ggg$ -->
     <g transform="translate(364.085625 56.974219) scale(0.1 -0.1)">
      <defs>
       <path id="DejaVuSans-Oblique-67" d="M 3816 3500 
L 3219 434 
Q 3047 -456 2561 -893 
Q 2075 -1331 1253 -1331 
Q 950 -1331 690 -1286 
Q 431 -1241 206 -1147 
L 313 -588 
Q 525 -725 762 -790 
Q 1000 -856 1269 -856 
Q 1816 -856 2167 -557 
Q 2519 -259 2631 300 
L 2681 563 
Q 2441 288 2122 144 
Q 1803 0 1434 0 
Q 903 0 598 351 
Q 294 703 294 1319 
Q 294 1803 478 2267 
Q 663 2731 997 3091 
Q 1219 3328 1514 3456 
Q 1809 3584 2131 3584 
Q 2484 3584 2746 3420 
Q 3009 3256 3138 2956 
L 3238 3500 
L 3816 3500 
z
M 2950 2216 
Q 2950 2641 2750 2872 
Q 2550 3103 2181 3103 
Q 1953 3103 1747 3012 
Q 1541 2922 1394 2759 
Q 1156 2491 1023 2127 
Q 891 1763 891 1375 
Q 891 944 1092 712 
Q 1294 481 1672 481 
Q 2219 481 2584 976 
Q 2950 1472 2950 2216 
z
" transform="scale(0.015625)"/>
      </defs>
      <use xlink:href="#DejaVuSans-Oblique-67"/>
      <use xlink:href="#DejaVuSans-Oblique-67" transform="translate(63.476562 0)"/>
      <use xlink:href="#DejaVuSans-Oblique-67" transform="translate(126.953125 0)"/>
     </g>
    </g>
    <g id="line2d_21">
     <path d="M 336.085625 68.174219 
L 346.085625 68.174219 
L 356.085625 68.174219 
" style="fill: none; stroke-dasharray: 7.4,3.2; stroke-dashoffset: 0; stroke: #808080; stroke-opacity: 0.6; stroke-width: 2"/>
    </g>
    <g id="text_19">
     <!-- $\eta_c(1S)$ -->
     <g transform="translate(364.085625 71.674219) scale(0.1 -0.1)">
      <defs>
       <path id="DejaVuSans-Oblique-3b7" d="M 3703 2113 
L 3034 -1331 
L 2459 -1331 
L 3125 2094 
Q 3222 2591 3075 2838 
Q 2931 3084 2544 3084 
Q 2078 3084 1750 2788 
Q 1425 2491 1325 1978 
L 941 0 
L 363 0 
L 1044 3500 
L 1622 3500 
L 1516 2956 
Q 1781 3272 2094 3428 
Q 2403 3584 2769 3584 
Q 3372 3584 3609 3213 
Q 3844 2838 3703 2113 
z
" transform="scale(0.015625)"/>
       <path id="DejaVuSans-Oblique-63" d="M 3431 3366 
L 3316 2797 
Q 3109 2947 2876 3022 
Q 2644 3097 2394 3097 
Q 2119 3097 1870 3000 
Q 1622 2903 1453 2725 
Q 1184 2453 1037 2087 
Q 891 1722 891 1331 
Q 891 859 1127 628 
Q 1363 397 1844 397 
Q 2081 397 2348 469 
Q 2616 541 2906 684 
L 2797 116 
Q 2547 13 2283 -39 
Q 2019 -91 1741 -91 
Q 1044 -91 669 257 
Q 294 606 294 1253 
Q 294 1797 489 2255 
Q 684 2713 1069 3078 
Q 1331 3328 1684 3456 
Q 2038 3584 2456 3584 
Q 2700 3584 2940 3529 
Q 3181 3475 3431 3366 
z
" transform="scale(0.015625)"/>
       <path id="DejaVuSans-Oblique-53" d="M 3859 4513 
L 3738 3897 
Q 3422 4066 3111 4152 
Q 2800 4238 2509 4238 
Q 1944 4238 1609 3991 
Q 1275 3744 1275 3334 
Q 1275 3109 1398 2989 
Q 1522 2869 2034 2731 
L 2413 2638 
Q 3053 2472 3303 2217 
Q 3553 1963 3553 1503 
Q 3553 797 2998 353 
Q 2444 -91 1538 -91 
Q 1166 -91 791 -17 
Q 416 56 38 206 
L 166 856 
Q 513 641 861 531 
Q 1209 422 1556 422 
Q 2147 422 2503 684 
Q 2859 947 2859 1369 
Q 2859 1650 2717 1795 
Q 2575 1941 2106 2059 
L 1728 2156 
Q 1081 2325 845 2545 
Q 609 2766 609 3163 
Q 609 3859 1145 4304 
Q 1681 4750 2541 4750 
Q 2875 4750 3203 4690 
Q 3531 4631 3859 4513 
z
" transform="scale(0.015625)"/>
      </defs>
      <use xlink:href="#DejaVuSans-Oblique-3b7" transform="translate(0 0.125)"/>
      <use xlink:href="#DejaVuSans-Oblique-63" transform="translate(63.378906 -16.28125) scale(0.7)"/>
      <use xlink:href="#DejaVuSans-28" transform="translate(104.599609 0.125)"/>
      <use xlink:href="#DejaVuSans-31" transform="translate(143.613281 0.125)"/>
      <use xlink:href="#DejaVuSans-Oblique-53" transform="translate(207.236328 0.125)"/>
      <use xlink:href="#DejaVuSans-29" transform="translate(270.712891 0.125)"/>
     </g>
    </g>
   </g>
  </g>
 </g>
 <defs>
  <clipPath id="p85a6a4e93d">
   <rect x="46.965625" y="10.999219" width="357.12" height="266.112"/>
  </clipPath>
 </defs>
</svg>
